<svg width="53" height="51" viewBox="0 0 53 51" fill="none" xmlns="http://www.w3.org/2000/svg">
<path fill-rule="evenodd" clip-rule="evenodd" d="M47.3339 31.8311C43.8559 38.689 35.7259 43.5 26.2499 43.5C16.7749 43.5 8.6439 38.689 5.1661 31.8311H5.166" fill="#D8D8D8" fill-opacity="0.01"/>
<path d="M47.3339 31.8311C43.8559 38.689 35.7259 43.5 26.2499 43.5C16.7749 43.5 8.6439 38.689 5.1661 31.8311H5.166" stroke="#826DA4"/>
<path fill-rule="evenodd" clip-rule="evenodd" d="M11.5623 38.7687C15.4979 41.7146 20.6529 43.5 26.2959 43.5C31.8479 43.5 36.9269 41.7715 40.8379 38.9098C39.9679 36.2364 38.7639 33.8388 37.3069 31.8311H15.0479C13.6159 33.8034 12.4292 36.152 11.5623 38.7687Z" fill="#D8D8D8" fill-opacity="0.01"/>
<path d="M11.5623 38.7687L11.0877 38.6115L10.9745 38.9533L11.2627 39.169L11.5623 38.7687ZM40.8379 38.9098L41.1339 39.3133L41.4259 39.0994L41.3139 38.7549L40.8379 38.9098ZM37.3069 31.8311L37.7109 31.5373L37.5619 31.3311H37.3069V31.8311ZM15.0479 31.8311V31.3311H14.7929L14.6429 31.5373L15.0479 31.8311ZM26.2959 43C20.7579 43 15.7089 41.2477 11.862 38.3684L11.2627 39.169C15.2879 42.1816 20.5479 44 26.2959 44V43ZM40.5429 38.5062C36.7199 41.3035 31.7449 43 26.2959 43V44C31.9509 44 37.1339 42.2395 41.1339 39.3133L40.5429 38.5062ZM41.3139 38.7549C40.4279 36.0371 39.2029 33.5916 37.7109 31.5373L36.9019 32.1248C38.3259 34.0859 39.5069 36.4356 40.3629 39.0646L41.3139 38.7549ZM15.0479 32.3311H37.3069V31.3311H15.0479V32.3311ZM14.6429 31.5373C13.1778 33.5555 11.9691 35.9511 11.0877 38.6115L12.037 38.926C12.8894 36.3529 14.0539 34.0513 15.4519 32.1248L14.6429 31.5373Z" fill="#826DA4"/>
<path fill-rule="evenodd" clip-rule="evenodd" d="M33.7419 16.4379H37.7589V27.383C38.1839 26.5733 38.7479 25.2851 39.3159 23.9867C40.2729 21.8014 41.2429 19.5873 41.5779 19.5774C41.9339 19.567 42.1249 19.8351 42.3479 20.1496C42.4579 20.3039 42.5759 20.4694 42.7249 20.6186C42.8969 20.7913 43.0729 20.9767 43.2519 21.1658C44.3319 22.305 45.5419 23.5802 46.9319 23.0433C48.9789 22.2524 48.6549 20.8674 47.9189 17.9918C47.8049 17.543 47.7099 17.0197 47.6099 16.4613C47.5039 15.8756 47.3919 15.2514 47.2419 14.6342C47.1379 14.2078 47.0339 13.7624 46.9319 13.2972C46.4799 12.7419 46.1289 12.2248 45.8509 11.8139C45.6749 11.5539 45.5279 11.3364 45.4019 11.1786C45.3669 11.1349 45.3329 11.0937 45.3019 11.0545C44.8359 10.4789 44.7019 10.3132 44.7019 8.65084C44.7019 6.74679 43.9679 7.43046 42.2099 9.06833C42.0129 9.25244 41.8019 9.44862 41.5779 9.6545C41.2479 9.9589 40.8289 10.367 40.3859 10.7995C39.8269 11.3445 39.2289 11.9281 38.7169 12.3906C37.5419 13.4514 35.5619 15.0203 33.7419 16.4379Z" fill="#D8D8D8" fill-opacity="0.01"/>
<path d="M33.7419 16.4379L33.4349 16.0435C33.2659 16.1747 33.1999 16.3984 33.2689 16.6004C33.3389 16.8023 33.5279 16.9379 33.7419 16.9379V16.4379ZM37.7589 16.4379H38.2589C38.2589 16.1618 38.0359 15.9379 37.7589 15.9379V16.4379ZM37.7589 27.383H37.2589C37.2589 27.6132 37.4169 27.8136 37.6399 27.8686C37.8629 27.9235 38.0959 27.8189 38.2019 27.615L37.7589 27.383ZM39.3159 23.9867L39.7739 24.1873L39.3159 23.9867ZM41.5779 19.5774L41.5929 20.0772L41.5779 19.5774ZM42.3479 20.1496L41.9409 20.4394L42.3479 20.1496ZM42.7249 20.6186L42.3709 20.9719L42.7249 20.6186ZM43.2519 21.1658L42.8889 21.5098L43.2519 21.1658ZM46.9319 23.0433L47.1119 23.5097L46.9319 23.0433ZM47.9189 17.9918L48.4039 17.8679L47.9189 17.9918ZM47.6099 16.4613L48.1019 16.3727L47.6099 16.4613ZM47.2419 14.6342L46.7559 14.7525L47.2419 14.6342ZM46.9319 13.2972L47.4199 13.1902C47.4029 13.1137 47.3689 13.0422 47.3189 12.9815L46.9319 13.2972ZM45.8509 11.8139L45.4369 12.0942L45.8509 11.8139ZM45.4019 11.1786L45.7919 10.8664L45.4019 11.1786ZM45.3019 11.0545L45.6899 10.74L45.3019 11.0545ZM42.2099 9.06833L41.8699 8.70252L42.2099 9.06833ZM41.5779 9.6545L41.9169 10.0226L41.5779 9.6545ZM40.3859 10.7995L40.0369 10.4415L40.3859 10.7995ZM38.7169 12.3906L38.3809 12.0196L38.7169 12.3906ZM33.7419 16.9379H37.7589V15.9379H33.7419V16.9379ZM37.2589 16.4379V27.383H38.2589V16.4379H37.2589ZM38.8579 23.7862C38.2859 25.0921 37.7309 26.3606 37.3169 27.1511L38.2019 27.615C38.6369 26.786 39.2089 25.4782 39.7739 24.1873L38.8579 23.7862ZM41.5639 19.0776C41.4109 19.0821 41.2949 19.1452 41.2299 19.1893C41.1589 19.2364 41.1009 19.2923 41.0559 19.3415C40.9649 19.4401 40.8779 19.5654 40.7949 19.6968C40.6269 19.9635 40.4349 20.3291 40.2309 20.747C39.8209 21.5863 39.3349 22.6969 38.8579 23.7862L39.7739 24.1873C40.2539 23.0913 40.7309 22.0021 41.1299 21.1855C41.3299 20.7755 41.5029 20.4492 41.6409 20.2296C41.7109 20.118 41.7619 20.0516 41.7919 20.0187C41.8069 20.0021 41.8049 20.0073 41.7869 20.0198C41.7729 20.0293 41.7039 20.074 41.5929 20.0772L41.5639 19.0776ZM42.7559 19.8598C42.6529 19.7158 42.5149 19.5168 42.3419 19.3654C42.1469 19.1952 41.8919 19.068 41.5639 19.0776L41.5929 20.0772C41.6199 20.0764 41.6379 20.0781 41.6829 20.118C41.7509 20.1766 41.8189 20.2689 41.9409 20.4394L42.7559 19.8598ZM43.0779 20.2653C42.9629 20.1501 42.8679 20.0183 42.7559 19.8598L41.9409 20.4394C42.0469 20.5895 42.1879 20.7887 42.3709 20.9719L43.0779 20.2653ZM43.6149 20.8217C43.4369 20.6336 43.2559 20.4434 43.0779 20.2653L42.3709 20.9719C42.5379 21.1392 42.7089 21.3197 42.8889 21.5098L43.6149 20.8217ZM46.7519 22.5768C46.2599 22.7666 45.7819 22.6579 45.2469 22.3129C44.6959 21.9577 44.1659 21.4026 43.6149 20.8217L42.8889 21.5098C43.4189 22.0681 44.0329 22.7203 44.7049 23.1533C45.3919 23.5965 46.2129 23.8568 47.1119 23.5097L46.7519 22.5768ZM47.4349 18.1157C47.6199 18.8382 47.7729 19.4473 47.8719 19.9746C47.9699 20.5038 48.0059 20.9163 47.9719 21.2481C47.9389 21.568 47.8419 21.8035 47.6739 21.9986C47.4999 22.2013 47.2169 22.397 46.7519 22.5768L47.1119 23.5097C47.6699 23.2941 48.1149 23.02 48.4319 22.6508C48.7569 22.274 48.9169 21.8352 48.9669 21.3505C49.0149 20.8778 48.9599 20.3554 48.8549 19.7914C48.7489 19.2256 48.5869 18.5832 48.4039 17.8679L47.4349 18.1157ZM47.1179 16.5499C47.2169 17.1032 47.3149 17.6458 47.4349 18.1157L48.4039 17.8679C48.2939 17.4402 48.2029 16.9361 48.1019 16.3727L47.1179 16.5499ZM46.7559 14.7525C46.9019 15.3526 47.0119 15.962 47.1179 16.5499L48.1019 16.3727C47.9969 15.7893 47.8819 15.1502 47.7269 14.5159L46.7559 14.7525ZM46.4429 13.4042C46.5459 13.8737 46.6509 14.323 46.7559 14.7525L47.7269 14.5159C47.6239 14.0926 47.5209 13.651 47.4199 13.1902L46.4429 13.4042ZM45.4369 12.0942C45.7149 12.505 46.0759 13.0387 46.5439 13.6129L47.3189 12.9815C46.8829 12.4451 46.5439 11.9446 46.2649 11.5335L45.4369 12.0942ZM45.0109 11.4907C45.1219 11.6295 45.2569 11.8277 45.4369 12.0942L46.2649 11.5335C46.0939 11.2801 45.9339 11.0433 45.7919 10.8664L45.0109 11.4907ZM44.9129 11.369C44.9449 11.4084 44.9769 11.4484 45.0109 11.4907L45.7919 10.8664C45.7559 10.8214 45.7219 10.7791 45.6899 10.74L44.9129 11.369ZM44.2019 8.65084C44.2019 9.4771 44.2329 10.0003 44.3459 10.3975C44.4689 10.8285 44.6839 11.0857 44.9129 11.369L45.6899 10.74C45.4539 10.4477 45.3679 10.3342 45.3079 10.1229C45.2379 9.8777 45.2019 9.48694 45.2019 8.65084H44.2019ZM42.5509 9.43414C42.9939 9.02139 43.3589 8.68194 43.6619 8.42766C43.9809 8.16116 44.1729 8.03992 44.2769 8.00455C44.3199 7.98996 44.2879 8.0113 44.2219 7.98965C44.1439 7.96426 44.1159 7.91293 44.1199 7.92023C44.1499 7.97601 44.2019 8.17345 44.2019 8.65084H45.2019C45.2019 8.17621 45.1619 7.74509 44.9999 7.44472C44.9069 7.27396 44.7579 7.11266 44.5319 7.03902C44.3179 6.96913 44.1129 7.00395 43.9539 7.05819C43.6539 7.16046 43.3339 7.39824 43.0199 7.66107C42.6919 7.93612 42.3059 8.29634 41.8699 8.70252L42.5509 9.43414ZM41.9169 10.0226C42.1419 9.8154 42.3539 9.6181 42.5509 9.43414L41.8699 8.70252C41.6719 8.88676 41.4619 9.08186 41.2399 9.28652L41.9169 10.0226ZM40.7349 11.1574C41.1799 10.7231 41.5929 10.3208 41.9169 10.0226L41.2399 9.28652C40.9019 9.5969 40.4779 10.011 40.0369 10.4415L40.7349 11.1574ZM39.0519 12.7616C39.5719 12.2914 40.1779 11.7005 40.7349 11.1574L40.0369 10.4415C39.4759 10.9885 38.8849 11.5648 38.3809 12.0196L39.0519 12.7616ZM34.0489 16.8324C35.8659 15.417 37.8609 13.8369 39.0519 12.7616L38.3809 12.0196C37.2229 13.066 35.2579 14.6235 33.4349 16.0435L34.0489 16.8324Z" fill="#826DA4"/>
<mask id="path-7-inside-1" fill="white">
<path fill-rule="evenodd" clip-rule="evenodd" d="M14.3839 20.6026C10.9961 18.8221 7.9339 21.5978 5.1973 28.9294C5.0783 29.2481 4.785 29.3799 4.5421 29.2238C4.3703 29.1134 4.2633 28.8818 4.268 28.6308C4.3894 22.2206 5.2585 17.7285 6.8755 15.1546C8.1188 13.4272 8.8342 12.7986 10.3032 12.3703C11.664 11.9735 13.0887 12.5001 14.7099 13.4412C15.9209 14.2358 16.9459 15.3058 17.7419 16.4397"/>
</mask>
<path fill-rule="evenodd" clip-rule="evenodd" d="M14.3839 20.6026C10.9961 18.8221 7.9339 21.5978 5.1973 28.9294C5.0783 29.2481 4.785 29.3799 4.5421 29.2238C4.3703 29.1134 4.2633 28.8818 4.268 28.6308C4.3894 22.2206 5.2585 17.7285 6.8755 15.1546C8.1188 13.4272 8.8342 12.7986 10.3032 12.3703C11.664 11.9735 13.0887 12.5001 14.7099 13.4412C15.9209 14.2358 16.9459 15.3058 17.7419 16.4397" fill="#D8D8D8" fill-opacity="0.01"/>
<path d="M5.1973 28.9294L6.13412 29.2792L6.13416 29.2791L5.1973 28.9294ZM4.5421 29.2238L5.08274 28.3825L5.08271 28.3825L4.5421 29.2238ZM4.268 28.6308L3.26818 28.6119L3.26818 28.6121L4.268 28.6308ZM6.8755 15.1546L6.06387 14.5704L6.04548 14.596L6.02873 14.6226L6.8755 15.1546ZM10.3032 12.3703L10.5831 13.3303L10.5831 13.3303L10.3032 12.3703ZM14.7099 13.4412L15.2585 12.6051L15.2356 12.5901L15.2119 12.5764L14.7099 13.4412ZM14.8491 19.7174C13.8465 19.1905 12.8044 18.9708 11.7516 19.1332C10.7062 19.2945 9.74691 19.8175 8.87481 20.608C7.16088 22.1616 5.64314 24.8753 4.26044 28.5797L6.13416 29.2791C7.48806 25.6519 8.86972 23.312 10.218 22.0899C10.877 21.4926 11.4895 21.1973 12.0566 21.1098C12.6163 21.0235 13.2274 21.1245 13.9187 21.4878L14.8491 19.7174ZM4.26048 28.5796C4.27727 28.5346 4.33971 28.4174 4.5063 28.3425C4.69354 28.2584 4.9173 28.2762 5.08274 28.3825L4.00147 30.0651C4.40981 30.3275 4.90166 30.3575 5.32603 30.1668C5.72974 29.9854 5.99833 29.6429 6.13412 29.2792L4.26048 28.5796ZM5.08271 28.3825C5.18386 28.4475 5.22912 28.5227 5.24661 28.5605C5.26505 28.6004 5.26819 28.6303 5.26783 28.6495L3.26818 28.6121C3.25871 29.1177 3.46773 29.7221 4.00149 30.0651L5.08271 28.3825ZM5.26782 28.6497C5.38883 22.2605 6.26166 18.0115 7.72227 15.6866L6.02873 14.6226C4.25534 17.4455 3.38998 22.1807 3.26818 28.6119L5.26782 28.6497ZM7.68713 15.7388C8.2983 14.8896 8.72658 14.3881 9.14052 14.0471C9.53022 13.7261 9.9459 13.5161 10.5831 13.3303L10.0233 11.4103C9.19151 11.6528 8.51498 11.9712 7.8689 12.5034C7.24707 13.0157 6.696 13.6922 6.06387 14.5704L7.68713 15.7388ZM10.5831 13.3303C11.513 13.0592 12.6092 13.378 14.2079 14.306L15.2119 12.5764C13.5682 11.6222 11.815 10.8878 10.0233 11.4103L10.5831 13.3303ZM14.1613 14.2773C15.2481 14.9904 16.1861 15.964 16.9234 17.0143L18.5604 15.8651C17.7057 14.6476 16.5937 13.4812 15.2585 12.6051L14.1613 14.2773Z" fill="#836FA5" mask="url(#path-7-inside-1)"/>
<path fill-rule="evenodd" clip-rule="evenodd" d="M4.6112 21.5L27.4259 4.5L50.2409 21.5" fill="#D8D8D8" fill-opacity="0.01"/>
<path d="M4.6112 21.5L27.4259 4.5L50.2409 21.5" stroke="#A0F3D8" stroke-width="2"/>
<path d="M44.3519 0H8.5C4.35786 0 1 3.35786 1 7.5V42.5C1 46.6421 4.35786 50 8.5 50H44.3519C48.494 50 51.8519 46.6421 51.8519 42.5V7.5C51.8519 3.35786 48.494 0 44.3519 0Z" fill="#D8D8D8" fill-opacity="0.0153136" stroke="#F7F2FF"/>
<path d="M37.2967 17H15.4819V31H37.2967V17Z" stroke="#826DA4"/>
<path d="M10.9129 30.5H9.6878V26.228H5.02859V30.5H3.8098V21.2578H5.02859V25.2314H9.6878V21.2578H10.9129V30.5ZM23.4369 26.1772C23.4369 27.0828 23.2849 27.8742 22.9799 28.5513C22.6749 29.2241 22.2439 29.7383 21.6849 30.0938C21.1259 30.4492 20.4749 30.627 19.7299 30.627C19.0019 30.627 18.3569 30.4492 17.7939 30.0938C17.2309 29.734 16.7929 29.2241 16.4799 28.564C16.1709 27.8996 16.0119 27.1315 16.0039 26.2598V25.5933C16.0039 24.7046 16.1579 23.9196 16.4669 23.2383C16.7759 22.557 17.2119 22.0365 17.7749 21.6768C18.3419 21.3128 18.9889 21.1309 19.7169 21.1309C20.4579 21.1309 21.1089 21.3107 21.6719 21.6704C22.2389 22.0259 22.6749 22.5443 22.9799 23.2256C23.2849 23.9027 23.4369 24.6919 23.4369 25.5933V26.1772ZM22.2239 25.5806C22.2239 24.4845 22.0039 23.6445 21.5639 23.0605C21.1239 22.4723 20.5089 22.1782 19.7169 22.1782C18.9469 22.1782 18.3399 22.4723 17.8949 23.0605C17.4549 23.6445 17.2289 24.457 17.2159 25.498V26.1772C17.2159 27.2394 17.4379 28.0752 17.8829 28.6846C18.3309 29.2897 18.9469 29.5923 19.7299 29.5923C20.5169 29.5923 21.1259 29.3066 21.5579 28.7354C21.9899 28.1598 22.2119 27.3368 22.2239 26.2661V25.5806ZM30.0889 21.2578L33.1109 28.7988L36.1319 21.2578H37.7129V30.5H36.4939V26.9009L36.6079 23.0161L33.5739 30.5H32.6409L29.6129 23.0352L29.7339 26.9009V30.5H28.5149V21.2578H30.0889ZM48.3389 26.228H44.3329V29.5034H48.9859V30.5H43.1149V21.2578H48.9229V22.2607H44.3329V25.2314H48.3389V26.228Z" fill="#FFF29A"/>
</svg>
