<?xml version="1.0" encoding="UTF-8"?>
<svg width="50px" height="51px" viewBox="0 0 50 51" version="1.1" xmlns="http://www.w3.org/2000/svg" xmlns:xlink="http://www.w3.org/1999/xlink">
    <!-- Generator: Sketch 51.3 (57544) - http://www.bohemiancoding.com/sketch -->
    <title>Group 10</title>
    <desc>Created with Sketch.</desc>
    <defs></defs>
    <g id="Page-1" stroke="none" stroke-width="1" fill="none" fill-rule="evenodd">
        <g id="iPhone-8" transform="translate(-191.000000, -152.000000)">
            <g id="Group-10" transform="translate(191.000000, 152.000000)">
                <rect id="Rectangle-5-Copy" stroke="#F7F2FF" fill-opacity="0.0153136322" fill="#D8D8D8" x="0.5" y="0.5" width="49" height="50"></rect>
                <g id="Group-9" transform="translate(1.000000, 4.000000)">
                    <g id="Group-2" transform="translate(0.802817, 3.000000)">
                        <path d="M42.3942255,24.3310345 C39.0406258,31.1890166 31.2003518,36 22.0632737,36 C12.9261958,36 5.08592188,31.1890167 1.73231905,24.3310345" id="Combined-Shape" stroke="#826DA4" fill-opacity="0" fill="#D8D8D8"></path>
                        <path d="M36.1303768,31.4097464 C32.3590863,34.2715043 27.4608364,36 22.1071393,36 C16.6660575,36 11.6954122,34.2146178 7.90013632,31.2687118 C8.73607252,28.6520057 9.88008465,26.3033901 11.2607846,24.3310345 L32.7250534,24.3310345 C34.1305136,26.3387605 35.2907207,28.7363625 36.1303768,31.4097464 Z" id="Combined-Shape" stroke="#826DA4" fill-opacity="0" fill="#D8D8D8"></path>
                        <g id="Group" transform="translate(0.704350, 0.000000)">
                            <path id="Combined-Shape" d="M28.8974476,9.32688972 C31.1707504,7.49061822 32.7295465,6.18521473 33.7219934,5.25550403 C34.0296302,4.96731407 34.3766293,4.62662073 34.8291658,4.17186605 C34.8893973,4.11130871 34.8893973,4.11130871 34.9495402,4.05073239 C35.070261,3.92909461 35.6327051,3.36019385 35.7792509,3.2127725 C36.0793228,2.91090778 36.300379,2.69233898 36.4848958,2.51635229 C36.584916,2.4209559 37.6112989,1.43000754 37.8518987,1.2066599 C38.2458928,0.84091712 38.5080783,0.628992929 38.6835143,0.534773034 C38.7365137,0.506309099 38.6332698,0.50156693 38.5724249,0.414943294 C38.6100465,0.468504472 38.6517611,0.719394747 38.6517611,1.15084155 C38.6517611,2.50073269 38.7340364,2.99202488 39.0650533,3.49570506 C39.1141564,3.57042113 39.1677717,3.64427909 39.2395388,3.73786033 C39.2716295,3.77970533 39.3996703,3.94382283 39.4304767,3.98379081 C39.4531663,4.01322818 40.4289166,5.49497717 40.9087122,6.10600671 L41.3019649,5.79721495 L40.8127609,5.90055653 C40.9066178,6.34486125 41.0062801,6.78985928 41.1140186,7.24854023 C41.1352788,7.33905266 41.1561738,7.43162079 41.1768254,7.52663447 C41.240283,7.81858926 41.299693,8.12453722 41.3660213,8.49371228 C41.4019107,8.69346856 41.5169422,9.35551828 41.5310926,9.435475 C41.6214355,9.94595811 41.690579,10.2941137 41.7688557,10.6115196 C42.5824432,13.9105544 42.5223158,14.5158265 41.1160467,15.0791173 C40.3411353,15.3895135 39.6095761,14.9420458 38.3413638,13.5667526 C38.2629601,13.4817289 37.9986661,13.1927434 37.972646,13.1644036 C37.8261126,13.0048067 37.7139786,12.8847059 37.6052377,12.7717737 C37.5453444,12.7095717 37.486627,12.637665 37.420623,12.5471127 C37.3761475,12.4860959 37.2166675,12.2536621 37.1818632,12.2052623 C36.8771029,11.7814556 36.5847093,11.5636429 36.1245856,11.5776546 C35.5020047,11.5966136 35.3043448,12.0144444 33.5517673,16.1643518 C33.5426153,16.186023 33.5426153,16.186023 33.5334642,16.2076933 C32.6753316,18.2398059 32.3497826,18.9866639 32.0109498,19.6575962 L32.957264,19.8829928 L32.957264,8.93793103 C32.957264,8.66178866 32.7334064,8.43793103 32.457264,8.43793103 L28.5832643,8.43793103 L28.8974476,9.32688972 Z M28.269081,8.54897235 C27.902324,8.84522209 28.1118042,9.43793103 28.5832643,9.43793103 L32.457264,9.43793103 L31.957264,8.93793103 L31.957264,19.8829928 C31.957264,20.40952 32.6662233,20.5783826 32.9035782,20.1083895 C33.2573849,19.407807 33.5849179,18.6563973 34.4546927,16.5967151 C34.4638394,16.5750555 34.4638394,16.5750555 34.4729855,16.5533981 C35.1189916,15.0237279 35.4336807,14.2973119 35.7484302,13.631967 C35.9411848,13.2245057 36.1011749,12.9158814 36.2271108,12.7103261 C36.2858153,12.6145075 36.3341453,12.5462462 36.3663216,12.5104328 C36.3401657,12.5395453 36.2912994,12.5730414 36.1550236,12.5771913 C36.196201,12.5759374 36.2403647,12.6088362 36.3699832,12.7890867 C36.3954786,12.8245412 36.5574048,13.0605402 36.6125148,13.1361468 C36.7033598,13.2607789 36.7897774,13.3666081 36.8848898,13.4653866 C36.987143,13.5715811 37.094395,13.686453 37.2360352,13.8407205 C37.2607969,13.8676897 37.5261346,14.1578164 37.606217,14.2446605 C39.1508203,15.9196817 40.1623205,16.5383789 41.487883,16.0074156 C43.5613473,15.1768752 43.6656817,14.1265931 42.7397668,10.3720795 C42.6680704,10.081356 42.602556,9.75147398 42.515791,9.2612077 C42.5021114,9.18391111 42.3867681,8.52006731 42.3502618,8.31687761 C42.2819675,7.93675977 42.2203777,7.61958657 42.1540094,7.31423966 C42.1322012,7.21390476 42.1100842,7.11592294 42.0875239,7.01987578 C41.9814406,6.56824171 41.883409,6.1305247 41.7911688,5.69387338 C41.7753408,5.61894558 41.7425129,5.54865483 41.6952175,5.4884232 C41.2488744,4.91999598 40.2764344,3.44327394 40.2225082,3.3733106 C40.189013,3.3298543 40.0619881,3.16703874 40.0330573,3.12931426 C39.9747978,3.05334635 39.9342608,2.99750443 39.9007382,2.9464959 C39.707896,2.65306427 39.6517611,2.31786514 39.6517611,1.15084155 C39.6517611,-0.193739431 39.1791904,-0.866528019 38.2103709,-0.346212423 C37.9367417,-0.199256687 37.6259356,0.0519674421 37.1715564,0.473765424 C36.9224589,0.705001404 35.8883579,1.70340142 35.7947135,1.79271674 C35.6023487,1.97618861 35.3758687,2.20012023 35.0700412,2.50777488 C34.9222936,2.6564052 34.3594662,3.22569366 34.239763,3.34630616 C34.1800498,3.40644968 34.1800498,3.40644968 34.1203324,3.46649014 C33.6753597,3.91364393 33.3356299,4.24720011 33.0383296,4.52570699 C32.0699068,5.4329122 30.5230281,6.7283355 28.269081,8.54897235 Z" fill="#826DA4" fill-rule="nonzero"></path>
                            <path d="M9.77307942,12.4725022 L12.5332899,8.9235985 C11.7927522,7.89499387 10.914828,7.01094429 9.97343734,6.36957821 C8.30499932,5.36543305 7.15342842,5.03829386 6.12633008,5.34888272 C4.86893193,5.72911295 4.26072495,6.24868085 3.10396554,7.91367528 C1.60854605,10.3822784 0.785198445,14.7690329 0.663554595,21.0505637 C3.27969865,13.8861244 6.31942051,10.9081422 9.77307942,12.4725022 Z" id="Combined-Shape" stroke="#826DA4" fill-opacity="0" fill="#D8D8D8"></path>
                            <path d="M10.3939143,24.8667877 C10.3939143,14.6047187 10.3939143,9.47368421 10.3939143,9.47368421 C10.3939143,9.47368421 17.7039199,9.47368421 32.3239312,9.47368421 L32.3239312,24.8667877" id="Rectangle-3" stroke="#826DA4" fill-opacity="0" fill="#D8D8D8"></path>
                        </g>
                    </g>
                    <text id="HOME" font-family="AndaleMono, Andale Mono" font-size="13" font-weight="normal" letter-spacing="5.85000038" fill="#FFF39A">
                        <tspan x="1" y="27">HOME</tspan>
                    </text>
                    <polyline id="Triangle-3" stroke="#A0F3D8" stroke-width="2" fill-opacity="0" fill="#D8D8D8" points="0.802816901 16.875 23.4420615 0 23.4420615 0 46.081306 16.875"></polyline>
                </g>
            </g>
        </g>
    </g>
</svg>