<?xml version="1.0" encoding="UTF-8"?>
<svg width="46px" height="46px" viewBox="0 0 46 46" version="1.1" xmlns="http://www.w3.org/2000/svg" xmlns:xlink="http://www.w3.org/1999/xlink">
    <!-- Generator: Sketch 51.3 (57544) - http://www.bohemiancoding.com/sketch -->
    <title>Group 12</title>
    <desc>Created with Sketch.</desc>
    <defs>
        <linearGradient x1="50%" y1="0%" x2="50%" y2="120.641771%" id="linearGradient-1">
            <stop stop-color="#FFF29A" offset="0%"></stop>
            <stop stop-color="#64F3FF" offset="94.0299855%"></stop>
            <stop stop-color="#D89CF7" offset="100%"></stop>
            <stop stop-color="#002E2C" offset="100%"></stop>
        </linearGradient>
    </defs>
    <g id="Page-1" stroke="none" stroke-width="1" fill="none" fill-rule="evenodd">
        <g id="iPhone-8" transform="translate(-277.000000, -191.000000)">
            <g id="Group-12" transform="translate(282.000000, 197.000000)">
                <rect id="Rectangle-Copy-5" stroke="url(#linearGradient-1)" stroke-width="12" fill="#FFFFFF" x="1" y="0" width="34" height="34"></rect>
                <g id="Group-6-Copy-5" transform="translate(0.000000, 2.000000)">
                    <g id="Group-3">
                        <g id="Group-2">
                            <path d="M34.6332455,20.2758621 C31.8475044,25.9908471 25.3348088,30 17.7448944,30 C10.1549802,30 3.64228472,25.9908473 0.856540963,20.2758621" id="Combined-Shape" stroke="#080808" fill-opacity="0" fill="#D8D8D8"></path>
                            <path d="M29.4300422,26.1747887 C26.297337,28.559587 22.2284983,30 17.7813323,30 C13.2615784,30 9.13260283,28.5121815 5.97997368,26.0572598 C6.67436243,23.8766714 7.62466119,21.9194917 8.77156991,20.2758621 L26.6013357,20.2758621 C27.768812,21.9489671 28.7325635,23.9469687 29.4300422,26.1747887 Z" id="Combined-Shape" stroke="#080808" fill-opacity="0" fill="#D8D8D8"></path>
                            <g id="Group" transform="translate(0.002636, 0.000000)">
                                <path id="Combined-Shape" d="M24.0581068,7.83674264 C25.9481054,6.3051957 27.2439589,5.21651493 28.0703773,4.43985703 C28.3267906,4.19888298 28.6156429,3.91437114 28.992187,3.53476908 C29.0422626,3.48426115 29.0422626,3.48426115 29.0922577,3.43374448 C29.1926223,3.33229343 29.6597968,2.85824207 29.7814275,2.73549263 C30.0302059,2.48442599 30.2133761,2.30273662 30.3659903,2.15671138 C30.4496098,2.076702 31.301549,1.25153959 31.5006946,1.06608136 C31.8228691,0.76605021 32.0365633,0.592768055 32.1739556,0.518743545 C32.1842644,0.513189365 32.0511264,0.507054518 31.9713181,0.393069081 C31.9897403,0.419380382 32.0222692,0.61565103 32.0222692,0.959034628 C32.0222692,2.09897063 32.0927425,2.52113719 32.3790886,2.95824163 C32.4211702,3.02247883 32.466794,3.08552951 32.5275319,3.16498282 C32.5544518,3.2001978 32.6608962,3.33707112 32.6862624,3.3700864 C32.702513,3.39123731 33.5133166,4.62644747 33.9146514,5.13919306 L34.3083832,4.83101246 L33.8191125,4.93403803 C33.8972089,5.30491917 33.9801288,5.67634764 34.0697594,6.05915943 C34.0873135,6.13413273 34.1045705,6.21082909 34.1216307,6.28957102 C34.1741053,6.53176941 34.2232776,6.78580659 34.2782141,7.0925562 C34.3079761,7.25873863 34.4035042,7.81029983 34.4152969,7.87714824 C34.4906344,8.30420715 34.5483663,8.59583363 34.6139262,8.8625258 C35.2804315,11.5738123 35.2340824,12.04188 34.121952,12.4887787 C33.5256083,12.7284136 32.941779,12.3701628 31.9118752,11.2497211 C31.8468879,11.1790209 31.6274336,10.9382954 31.6057142,10.9145639 C31.4835835,10.781119 31.3900283,10.6805959 31.299157,10.5859197 C31.2523501,10.5371529 31.2058849,10.4800681 31.1531268,10.4074563 C31.1170659,10.357825 30.9847935,10.1644274 30.9551092,10.1230154 C30.6871481,9.74918849 30.4232544,9.55197639 30.0050538,9.5647523 C29.426996,9.58241179 29.3202431,9.80879824 27.792295,13.4384002 C27.7846922,13.4564608 27.7846922,13.4564608 27.7770903,13.4745201 C27.0652222,15.1656702 26.7949602,15.7876781 26.5147347,16.3443382 L27.4613384,16.5691607 L27.4613384,7.44827586 C27.4613384,7.17213349 27.2374808,6.94827586 26.9613384,6.94827586 L23.7433155,6.94827586 L24.0581068,7.83674264 Z M23.4285242,7.05980908 C23.0625348,7.35638598 23.2722464,7.94827586 23.7433155,7.94827586 L26.9613384,7.94827586 L26.4613384,7.44827586 L26.4613384,16.5691607 C26.4613384,17.0960359 27.1710352,17.2645921 27.407942,16.7939832 C27.7030727,16.2077144 27.9753076,15.5811659 28.6987637,13.8624868 C28.7063612,13.844438 28.7063612,13.844438 28.7139581,13.8263914 C29.2500887,12.5528269 29.5112468,11.948048 29.772014,11.3950496 C29.9309689,11.0579604 30.0626635,10.8031049 30.1654082,10.6348655 C30.2117607,10.5589656 30.2492134,10.505898 30.2719927,10.4804626 C30.236006,10.5206454 30.1789107,10.5599076 30.0355892,10.564286 C30.0338054,10.5643405 30.0494804,10.5760547 30.1423455,10.7056088 C30.1627504,10.7340753 30.2974612,10.9310383 30.3441232,10.9952599 C30.4216551,11.1019684 30.4957495,11.192997 30.5777015,11.2783805 C30.6620971,11.3663099 30.7507797,11.4615974 30.8680267,11.5897062 C30.8884903,11.6120656 31.1089861,11.8539336 31.1756488,11.9264564 C32.4822719,13.3479435 33.3463532,13.8781633 34.4948143,13.4166654 C36.2732007,12.7020382 36.3634655,11.7904773 35.5850149,8.62380675 C35.5259964,8.38372446 35.4718717,8.1103196 35.4000907,7.70342067 C35.3887658,7.63922466 35.292928,7.0858746 35.2625529,6.9162687 C35.2056622,6.59860757 35.1543233,6.33337712 35.0989552,6.07782408 C35.0807453,5.99377553 35.0622735,5.91168027 35.043427,5.83118725 C34.9554419,5.45540318 34.874143,5.09123579 34.7976538,4.72798689 C34.7819057,4.6531988 34.7492223,4.58301625 34.7021149,4.52283187 C34.3341322,4.05269682 33.5266289,2.82251446 33.4792368,2.76083143 C33.4511895,2.72432649 33.3457579,2.5887556 33.3219891,2.55766268 C33.2747175,2.49582502 33.2421317,2.45079248 33.2155784,2.41025918 C33.0667694,2.18310377 33.0222692,1.91652756 33.0222692,0.959034628 C33.0222692,-0.213667087 32.5847787,-0.838508289 31.699637,-0.361609702 C31.4640034,-0.23465452 31.2017295,-0.0219797418 30.8191841,0.334273075 C30.6115519,0.527634526 29.751905,1.36026243 29.6746527,1.43417948 C29.5142019,1.58770305 29.3256163,1.77476401 29.0710912,2.03163018 C28.9482606,2.15559047 28.4807036,2.63003013 28.3813548,2.73045431 C28.3317887,2.78053751 28.3317887,2.78053751 28.2822263,2.83052775 C27.9132346,3.20251608 27.6316405,3.47987884 27.3855495,3.71115216 C26.5831285,4.46525751 25.299185,5.54393239 23.4285242,7.05980908 Z" fill="#000000" fill-rule="nonzero"></path>
                                <path d="M8.09189327,10.2903497 L10.3059154,7.4345799 C9.70391574,6.60634137 8.99510897,5.89500397 8.2403911,5.37901624 C6.87327005,4.55358176 5.93800023,4.28703831 5.11390113,4.53703974 C4.0904969,4.84750303 3.59938386,5.26838623 2.65115725,6.63730032 C1.45827581,8.61278983 0.781473833,12.0875118 0.647496542,17.0401998 C2.7815041,11.411303 5.26568093,9.05373102 8.09189327,10.2903497 Z" id="Combined-Shape" stroke="#060606" fill-opacity="0" fill="#D8D8D8"></path>
                                <path d="M8.63393291,20.722323 C8.63393291,12.1705989 8.63393291,7.89473684 8.63393291,7.89473684 C8.63393291,7.89473684 14.7061495,7.89473684 26.8505826,7.89473684 L26.8505826,20.722323" id="Rectangle-3" stroke="#060606" fill-opacity="0" fill="#D8D8D8"></path>
                            </g>
                        </g>
                    </g>
                    <g id="Group-5" transform="translate(11.008264, 10.434783)">
                        <rect id="Rectangle-4" stroke="#050404" fill="#D8D8D8" x="0.5" y="2.06521739" width="3.9569378" height="5.26086957"></rect>
                        <path d="M0.354066986,0.3 L13.1004785,0.3" id="Line" stroke="#040404" stroke-linecap="square"></path>
                        <path d="M6.72727273,3.35217391 L12.3923445,3.35217391" id="Line-2" stroke="#040303" stroke-linecap="square"></path>
                        <path d="M6.72727273,4.99565217 L12.3923445,4.99565217" id="Line-3" stroke="#040404" stroke-linecap="square"></path>
                        <path d="M6.72727273,6.56086957 L10.9760766,6.56086957" id="Line-4" stroke="#060505" stroke-linecap="square"></path>
                    </g>
                </g>
            </g>
        </g>
    </g>
</svg>