<?xml version="1.0" encoding="UTF-8"?>
<svg width="36px" height="28px" viewBox="0 0 36 28" version="1.1" xmlns="http://www.w3.org/2000/svg" xmlns:xlink="http://www.w3.org/1999/xlink">
    <!-- Generator: Sketch 51.3 (57544) - http://www.bohemiancoding.com/sketch -->
    <title>Group 6 Copy</title>
    <desc>Created with Sketch.</desc>
    <defs></defs>
    <g id="Page-1" stroke="none" stroke-width="1" fill="none" fill-rule="evenodd">
        <g id="iPhone-8" transform="translate(-6.000000, -143.000000)">
            <g id="Group-6-Copy" transform="translate(6.000000, 144.000000)">
                <g id="Group-3">
                    <g id="Group-2">
                        <path d="M33.5897436,17.5724138 C30.9326234,22.5254008 24.7206266,26 17.4811474,26 C10.2416684,26 4.02967173,22.525401 1.37254902,17.5724138" id="Combined-Shape" stroke="#080808" stroke-width="2" fill-opacity="0" fill="#D8D8D8"></path>
                        <path d="M28.6267782,22.6848169 C25.6387137,24.751642 21.757738,26 17.5159029,26 C13.2048314,26 9.26649542,24.7105573 6.25942685,22.5829585 C6.92175485,20.6931152 7.82817721,18.9968928 8.92213181,17.5724138 L25.9286764,17.5724138 C27.042249,19.0224381 27.9615029,20.7540395 28.6267782,22.6848169 Z" id="Combined-Shape" stroke="#080808" stroke-width="2" fill-opacity="0" fill="#D8D8D8"></path>
                        <g id="Group" transform="translate(0.558069, 0.000000)">
                            <path id="Combined-Shape" d="M23.2399711,7.2604395 C25.0532374,5.92534477 26.2956384,4.97695233 27.0971032,4.29257456 C27.3474408,4.07880917 27.6270432,3.8285747 27.9904498,3.49569507 C28.0385041,3.45165517 28.0385041,3.45165517 28.0864338,3.40765092 C28.1827403,3.31919788 28.6281278,2.90855331 28.7434629,2.80279387 C28.9775169,2.58817198 29.1491753,2.43346092 29.2903516,2.3107236 C31.1120552,0.726952189 30.7295176,1.0506435 30.9019245,0.966242151 C30.7223486,1.05415309 30.3527826,1.03868005 30.093731,0.702502386 C30.0276632,0.616764434 30.0077488,0.563862475 30.003796,0.542192194 C30.0137901,0.596983106 30.020678,0.694692007 30.020678,0.831163344 C30.020678,1.93535554 30.1069691,2.40504116 30.4718857,2.91117948 C30.5216869,2.98025369 30.5731979,3.04493515 30.6393817,3.12360089 C30.6669636,3.15638472 30.7691055,3.27572344 30.7916806,3.302421 C30.7881234,3.2982142 31.5635088,4.37152231 31.966678,4.83954206 L32.7243249,4.18687747 L31.7501429,4.4126413 C31.8257863,4.73904653 31.9060389,5.06567736 31.9927087,5.40201717 C32.0085278,5.46340642 32.0241182,5.52636383 32.0395667,5.59115132 C32.0875392,5.7923364 32.1328798,6.00517252 32.1838709,6.26387406 C32.2118156,6.40565056 32.302709,6.88249535 32.3142955,6.94217286 C32.3887125,7.3254654 32.446378,7.59013805 32.5135914,7.83857087 C33.0786533,9.92714302 33.0667808,10.0360837 32.3813516,10.2863473 C32.0585192,10.4042197 31.6380963,10.1698133 30.7903532,9.33182401 C30.7293349,9.27150779 30.5206153,9.06347933 30.4991725,9.042191 C30.3798681,8.92374646 30.2878262,8.83388676 30.1974409,8.74832218 C30.1732172,8.72539045 30.1453709,8.69430616 30.109927,8.64998188 C30.0820599,8.61513282 29.9573978,8.44951826 29.9233602,8.40637243 C29.5751625,7.96499881 29.1946801,7.70664158 28.6065008,7.72296829 C27.8876217,7.74292295 27.7240209,7.98633107 27.078456,9.23025131 C26.8162438,9.73550011 26.562292,10.2698502 26.0412984,11.3943631 C26.0340427,11.4100241 26.0340427,11.4100241 26.0267887,11.4256821 C25.3555351,12.8746237 25.0991416,13.4107902 24.8417798,13.8753142 L26.7165018,14.3599393 L26.7165018,6.45517241 C26.7165018,5.90288766 26.2687866,5.45517241 25.7165018,5.45517241 L22.6470588,5.45517241 L23.2399711,7.2604395 Z M22.0541466,5.64990533 C21.2766676,6.22235742 21.6815667,7.45517241 22.6470588,7.45517241 L25.7165018,7.45517241 L24.7165018,6.45517241 L24.7165018,14.3599393 C24.7165018,15.3924287 26.0908535,15.7477056 26.5912238,14.8445644 C26.8826533,14.3185499 27.1437089,13.7726342 27.8415089,12.2663906 C27.8487526,12.2507548 27.8487526,12.2507548 27.8559948,12.2351229 C28.3633924,11.1399558 28.6104731,10.6200633 28.8536329,10.1515259 C28.9960402,9.87712536 29.1120752,9.67309411 29.1955736,9.54886363 C29.1131236,9.67153425 29.0744722,9.71074868 28.6619954,9.72219822 C28.4710063,9.7274997 28.3571847,9.65021193 28.3531534,9.64510188 C28.3668925,9.66251741 28.4968865,9.83521542 28.5479229,9.89903887 C28.6367534,10.0101255 28.7239003,10.1074061 28.8224906,10.200738 C28.8992798,10.2734316 28.9810616,10.3532744 29.0900826,10.4615098 C29.1088751,10.4801668 29.3197927,10.690386 29.3843459,10.7541965 C30.7652496,12.1192121 31.7258855,12.6548136 33.0672982,12.1650376 C35.1389273,11.4086453 35.2573611,10.3219079 34.4441824,7.31625067 C34.3925692,7.12547896 34.3435428,6.90045778 34.2776338,6.56098686 C34.2671701,6.50709255 34.1755333,6.02634757 34.1461175,5.87710753 C34.0904446,5.59465309 34.0399147,5.35745726 33.9850237,5.12725777 C33.9668305,5.05096018 33.9483417,4.97629818 33.929441,4.90294995 C33.8466957,4.58184002 33.7703117,4.27095443 33.698507,3.96111363 C33.6619531,3.80338196 33.5876461,3.65688493 33.4819719,3.53421287 C33.1513439,3.15040274 32.3831414,2.08703734 32.31888,2.01104113 C32.2905078,1.97748781 32.1905563,1.86070822 32.1697897,1.8360252 C32.132951,1.79223878 32.1098634,1.76324811 32.0941987,1.74152122 C32.0440518,1.67196767 32.020678,1.5447429 32.020678,0.831163344 C32.020678,-0.530339603 31.3056786,-1.45821216 30.0225495,-0.830059487 C29.7483295,-0.69581576 29.4718501,-0.492109008 29.0752997,-0.156560474 C28.8725321,0.0150150306 28.0482807,0.740406161 27.9781446,0.801381816 C27.8207105,0.938253452 27.6377775,1.10312602 27.3917661,1.32871257 C27.2739269,1.43676822 26.8277406,1.84814921 26.7335546,1.93465471 C26.6865201,1.977837 26.6865201,1.977837 26.6395367,2.02089552 C26.2918298,2.33939423 26.027324,2.57611774 25.7983585,2.7716334 C25.0461893,3.41391712 23.8279056,4.34389958 22.0541466,5.64990533 Z" fill="#000000" fill-rule="nonzero"></path>
                            <path d="M7.56413862,8.26556217 L9.11997681,6.44213969 C8.65959861,5.93114589 8.14820122,5.49300899 7.62544818,5.16758617 C6.42348352,4.50818611 5.64216672,4.3058656 5.00506988,4.48147597 C4.14852195,4.71757618 3.77065289,5.01181712 2.95334817,6.08182286 C2.13165071,7.31825715 1.57244186,9.33694417 1.30279658,12.1214364 C3.11609651,8.889058 5.21101485,7.51300121 7.56413862,8.26556217 Z" id="Combined-Shape" stroke="#060606" stroke-width="2" fill-opacity="0" fill="#D8D8D8"></path>
                            <path d="M8.23529412,17.9593466 C8.23529412,10.5478524 8.23529412,6.84210526 8.23529412,6.84210526 C8.23529412,6.84210526 14.0271493,6.84210526 25.6108597,6.84210526 L25.6108597,17.9593466" id="Rectangle-3" stroke="#060606" stroke-width="2" fill-opacity="0" fill="#D8D8D8"></path>
                        </g>
                    </g>
                </g>
                <g id="Group-5" transform="translate(11.000000, 9.000000)">
                    <rect id="Rectangle-4" stroke="#050404" fill="#D8D8D8" x="0.5" y="1.9" width="3.78947368" height="4.6"></rect>
                    <path d="M0.342105263,0.25 L12.6578947,0.25" id="Line" stroke="#040404" stroke-linecap="square"></path>
                    <path d="M6.5,2.98 L11.9736842,2.98" id="Line-2" stroke="#040303" stroke-linecap="square"></path>
                    <path d="M6.5,4.45 L11.9736842,4.45" id="Line-3" stroke="#040404" stroke-linecap="square"></path>
                    <path d="M6.5,5.85 L10.6052632,5.85" id="Line-4" stroke="#060505" stroke-linecap="square"></path>
                </g>
            </g>
        </g>
    </g>
</svg>