<?xml version="1.0" encoding="UTF-8"?>
<svg width="103px" height="81px" viewBox="0 0 103 81" version="1.1" xmlns="http://www.w3.org/2000/svg" xmlns:xlink="http://www.w3.org/1999/xlink">
    <!-- Generator: Sketch 51.3 (57544) - http://www.bohemiancoding.com/sketch -->
    <title>Group 6 Copy 7</title>
    <desc>Created with Sketch.</desc>
    <defs>
        <filter x="-20.5%" y="-30.0%" width="141.0%" height="175.0%" filterUnits="objectBoundingBox" id="filter-1">
            <feOffset dx="0" dy="2" in="SourceAlpha" result="shadowOffsetOuter1"></feOffset>
            <feGaussianBlur stdDeviation="2" in="shadowOffsetOuter1" result="shadowBlurOuter1"></feGaussianBlur>
            <feColorMatrix values="0 0 0 0 1   0 0 0 0 1   0 0 0 0 1  0 0 0 0.5 0" type="matrix" in="shadowBlurOuter1" result="shadowMatrixOuter1"></feColorMatrix>
            <feMerge>
                <feMergeNode in="shadowMatrixOuter1"></feMergeNode>
                <feMergeNode in="SourceGraphic"></feMergeNode>
            </feMerge>
        </filter>
    </defs>
    <g id="Page-1" stroke="none" stroke-width="1" fill="none" fill-rule="evenodd">
        <g id="iPhone-8" transform="translate(-218.000000, -408.000000)">
            <g id="Group-6-Copy-7" transform="translate(218.000000, 409.000000)">
                <g id="Group-3">
                    <g id="Group-2">
                        <path d="M99.202972,53.0911225 C91.223535,68.0554664 72.5686631,78.5531915 50.8282212,78.5531915 C29.0877797,78.5531915 10.4329081,68.0554668 2.45346365,53.0911225" id="Combined-Shape" stroke="#BFF2C3" stroke-width="2" fill-opacity="0" fill="#D8D8D8"></path>
                        <path d="M84.2989909,68.5371063 C75.3257151,74.7815568 63.6709918,78.5531915 50.9325934,78.5531915 C37.986275,78.5531915 26.1592966,74.6574285 17.1289509,68.229364 C19.117948,62.5196248 21.8399702,57.3948677 25.1251591,53.0911225 L76.1964845,53.0911225 C79.5405869,57.4720471 82.3011428,62.703694 84.2989909,68.5371063 Z" id="Combined-Shape" stroke="#BFF2C3" stroke-width="2" fill-opacity="0" fill="#D8D8D8"></path>
                        <g id="Group" transform="translate(0.007549, 0.000000)">
                            <path id="Combined-Shape" d="M68.6052522,20.3064096 C74.0109765,16.3020432 77.7177969,13.4552409 80.0752251,11.4299878 C80.8055751,10.8025483 81.6300971,10.0601485 82.7056818,9.06893197 C82.8489171,8.93686522 82.8489171,8.93686522 82.9919544,8.80474534 C83.2790403,8.53946885 84.6173576,7.29805516 84.9662241,6.97621033 C85.6810857,6.31671869 86.2078864,5.83904414 86.6481424,5.45396541 C86.8851165,5.24669127 89.32848,3.08332505 89.9023097,2.59481973 C90.8511305,1.78708164 91.4833624,1.3184317 91.921139,1.10281776 C92.0788266,1.0251534 92.1724603,0.99924149 92.1870305,0.99985522 C92.1024076,0.996290702 92.0005385,0.942570436 91.9575041,0.886384381 C92.057154,1.01648794 92.1563217,1.56346181 92.1563217,2.51117436 C92.1563217,5.45165522 92.3520678,6.52357812 93.1313805,7.61104704 C93.2466517,7.77189892 93.372803,7.93126669 93.542092,8.13370499 C93.6180804,8.22457309 93.9226178,8.58254395 93.9962308,8.67012813 C94.0536391,8.73843208 96.3749405,11.9711497 97.5128441,13.3001093 L97.2979598,12.8741848 C97.5212542,13.8435627 97.7583601,14.8144525 98.0146809,15.8151984 C98.0652895,16.0127881 98.1150268,16.2148582 98.1641833,16.4222606 C98.3152143,17.0594941 98.4566002,17.7272138 98.6144438,18.532891 C98.6998446,18.9688 98.9735499,20.4134322 99.0072137,20.5878742 C99.2221224,21.7015057 99.3865934,22.4609775 99.5727282,23.1531441 C101.518934,30.3903618 101.375925,31.7105636 97.9276317,32.9772491 C95.9406621,33.7071363 94.1377704,32.6958313 91.0586528,29.633657 C90.8718669,29.4478989 90.2428692,28.8171767 90.1811338,28.755514 C89.8331717,28.4079617 89.5670565,28.146578 89.3092606,27.9010498 C89.161919,27.7607197 89.0187846,27.599971 88.8587623,27.3986402 C88.7518114,27.2640809 88.3720921,26.7565575 88.2902588,26.6521961 C87.5974123,25.7686142 86.9497132,25.3261391 85.9618628,25.3537264 C84.641144,25.3906095 84.0008371,26.6318908 80.019536,35.2773192 C79.9977603,35.3246059 79.9977603,35.3246059 79.9759867,35.3718905 C77.9334889,39.8075202 77.1588358,41.4373014 76.3517102,42.9029663 L78.2276711,43.3853484 L78.2276711,19.5028613 C78.2276711,18.9505766 77.7799558,18.5028613 77.2276711,18.5028613 L68.0100125,18.5028613 L68.6052522,20.3064096 Z M67.4147729,18.6993131 C66.6401341,19.2731377 67.0459898,20.5028613 68.0100125,20.5028613 L77.2276711,20.5028613 L76.2276711,19.5028613 L76.2276711,43.3853484 C76.2276711,44.4192049 77.6049182,44.7733484 78.103632,43.8677305 C78.9445483,42.3407049 79.7238154,40.7012164 81.7926397,36.2084143 C81.8144031,36.1611517 81.8144031,36.1611517 81.8361654,36.1138941 C83.3735752,32.775396 84.1224807,31.1900243 84.8718605,29.7372974 C85.3314665,28.846318 85.7131321,28.1711369 86.0145902,27.7198982 C86.1572617,27.5063399 86.2756368,27.3530132 86.3580985,27.2688422 C86.3299057,27.2976193 86.2523138,27.3463948 86.0176942,27.3529469 C86.2226219,27.347224 86.3757154,27.4518097 86.7164145,27.8863007 C86.7780562,27.964912 87.1630794,28.4795244 87.2930789,28.6430821 C87.5062573,28.9112906 87.708452,29.1383678 87.9299257,29.3493022 C88.1741616,29.5819158 88.4300458,29.8332504 88.7677538,30.1705607 C88.8268468,30.229584 89.458036,30.8625037 89.6483463,31.0517668 C93.2619432,34.6454795 95.6064256,35.9605815 98.61725,34.8545947 C101.236444,33.8924682 102.553886,32.436019 102.794122,30.2182413 C102.976349,28.53599 102.667662,26.9605756 101.504112,22.6337635 C101.333406,21.9989717 101.177477,21.2789431 100.970981,20.2089063 C100.938428,20.0402163 100.663987,18.591705 100.577132,18.1483725 C100.41466,17.3190678 100.268143,16.6271165 100.11027,15.9610179 C100.0584,15.7421633 100.005796,15.5284471 99.9521393,15.3189576 C99.6997,14.3333659 99.46642,13.3781424 99.2469218,12.425245 C99.2107038,12.2680135 99.1369779,12.1218806 99.0320375,11.9993205 C97.9663193,10.7546664 95.6521652,7.53190235 95.5272764,7.38331062 C95.4478925,7.28886026 95.1455356,6.93345239 95.0763316,6.85069725 C94.93624,6.68317367 94.8383686,6.55953205 94.757043,6.44604869 C94.289904,5.79419326 94.1563217,5.06268472 94.1563217,2.51117436 C94.1563217,-0.357919066 93.1165979,-1.71538849 91.0374637,-0.691372269 C90.4067503,-0.380733 89.6756261,0.161222025 88.6058574,1.07192395 C88.0145184,1.57533512 85.5552395,3.7527929 85.3314146,3.94856583 C84.8749318,4.34783759 84.3368806,4.83571359 83.6100866,5.50621338 C83.2587217,5.8303631 81.9196075,7.07251597 81.6346372,7.33583759 C81.4924931,7.4671324 81.4924931,7.4671324 81.3503262,7.59821406 C80.2904093,8.57499171 79.4809527,9.30382665 78.7719366,9.91293837 C76.4637404,11.8958965 72.7810276,14.7241844 67.4147729,18.6993131 Z" fill="#BFF2C3" fill-rule="nonzero"></path>
                            <path d="M23.3253767,27.3619586 L30.0164984,19.4724265 C28.2423861,17.2080421 26.1343335,15.2595582 23.8606984,13.8393544 C19.8374551,11.6187918 17.0330892,10.8881965 14.4996509,11.5907582 C11.4520712,12.4358993 9.97595526,13.5923089 7.20231898,17.2537871 C3.62105538,22.6753541 1.66013942,32.3136562 1.3851554,46.128077 C1.38099964,46.3368506 1.46178105,46.5033137 1.53555896,46.5487055 C1.52754892,46.5437729 1.52872747,46.5418469 1.58661862,46.3943444 C7.86872236,30.3883885 15.132729,23.827468 23.3253767,27.3619586 Z" id="Combined-Shape" stroke="#BFF2C3" stroke-width="2" fill-opacity="0" fill="#D8D8D8"></path>
                            <path d="M24.7309136,54.2601537 C24.7309136,31.8679796 24.7309136,20.6718925 24.7309136,20.6718925 C24.7309136,20.6718925 42.1240837,20.6718925 76.9104237,20.6718925 L76.9104237,54.2601537" id="Rectangle-3" stroke="#BFF2C3" stroke-width="2" fill-opacity="0" fill="#D8D8D8"></path>
                        </g>
                    </g>
                </g>
                <g id="Group-5" filter="url(#filter-1)" transform="translate(32.085106, 26.553191)" stroke="#BFF2C3">
                    <rect id="Rectangle-4" fill-opacity="0.333984375" fill="#BFF2C3" x="0.5" y="4.48297872" width="13.2665174" height="14.9319149"></rect>
                    <path d="M1.01903695,0.414893617 L37.7043673,0.414893617" id="Line" fill="#D8D8D8" stroke-linecap="square"></path>
                    <path d="M19.3617021,8.18170213 L35.6662934,8.18170213" id="Line-2" fill="#D8D8D8" stroke-linecap="square"></path>
                    <path d="M19.3617021,12.3638298 L35.6662934,12.3638298" id="Line-3" fill="#D8D8D8" stroke-linecap="square"></path>
                    <path d="M19.3617021,16.3468085 L31.5901456,16.3468085" id="Line-4" fill="#D8D8D8" stroke-linecap="square"></path>
                </g>
            </g>
        </g>
    </g>
</svg>