<?xml version="1.0" encoding="UTF-8"?>
<svg width="29px" height="29px" viewBox="0 0 29 29" version="1.1" xmlns="http://www.w3.org/2000/svg" xmlns:xlink="http://www.w3.org/1999/xlink">
    <!-- Generator: Sketch 51.3 (57544) - http://www.bohemiancoding.com/sketch -->
    <title>Group 10</title>
    <desc>Created with Sketch.</desc>
    <defs></defs>
    <g id="Page-1" stroke="none" stroke-width="1" fill="none" fill-rule="evenodd">
        <g id="iPhone-8" transform="translate(-151.000000, -182.000000)">
            <g id="Group-10" transform="translate(147.000000, 178.000000)">
                <g id="Group-3-Copy-2" transform="translate(7.000000, 11.000000)">
                    <g id="Group-2">
                        <path d="M21.3374847,12.1655172 C19.6495808,15.5945083 15.7034837,18 11.1046908,18 C6.50589795,18 2.55980099,15.5945084 0.871895425,12.1655172" id="Combined-Shape" stroke="#080808" fill-opacity="0" fill="#D8D8D8"></path>
                        <path d="M18.1848201,15.7048732 C16.2866877,17.1357522 13.8213441,18 11.1267688,18 C8.38821192,18 5.8864309,17.1073089 3.97622639,15.6343559 C4.39696237,14.3260029 4.97275638,13.151695 5.66767802,12.1655172 L16.470883,12.1655172 C17.1782667,13.1693802 17.7622118,14.3681812 18.1848201,15.7048732 Z" id="Combined-Shape" stroke="#080808" fill-opacity="0" fill="#D8D8D8"></path>
                        <g id="Group" transform="translate(0.354507, 0.000000)">
                            <path id="Combined-Shape" d="M14.6992021,4.85893515 C15.8482056,3.9369277 16.635732,3.28175756 17.1412349,2.81132475 C17.2986533,2.66482741 17.4751184,2.49270889 17.7047751,2.26344472 C17.7352188,2.23303768 17.7352188,2.23303768 17.7655968,2.20264202 C17.8266114,2.14156847 18.1095999,1.85721439 18.1830576,1.78380399 C18.3326487,1.6343091 18.4425531,1.52635624 18.533462,1.44022047 C19.728192,0.30821851 19.4599093,0.555625609 19.5861345,0.488280901 C19.5153293,0.526057457 19.3283295,0.517524739 19.2116035,0.352437621 C19.1911729,0.323542378 19.2055164,0.4092433 19.2055164,0.575420777 C19.2055164,1.29652174 19.2535927,1.58171188 19.4551725,1.886421 C19.5016997,1.95675174 19.5539285,2.02440776 19.6500774,2.1457788 C19.6536421,2.15037323 20.1455805,2.89250345 20.395478,3.2086594 L20.7877378,2.89860748 L20.2986727,3.00260389 C20.3463234,3.22669149 20.3968995,3.45103138 20.4515468,3.6821534 C20.4672192,3.74934794 20.4672192,3.74934794 20.4822219,3.81708717 C20.5134198,3.95967779 20.5427665,4.10981236 20.5756497,4.29163184 C20.5935561,4.39064131 20.6513734,4.72121226 20.6586153,4.76186365 C20.7049968,5.02221824 20.7407215,5.20091827 20.7817936,5.36636675 C21.1629889,6.90191571 21.1440076,7.09173432 20.6028751,7.30706271 C20.3480959,7.40844492 20.0490918,7.22675839 19.4790868,6.61269173 C19.4400457,6.57063273 19.3869784,6.51298943 19.2938736,6.41191304 C19.2188968,6.33078926 19.1612364,6.26943853 19.1048826,6.21129757 C19.0835597,6.18929847 19.0609589,6.16180303 19.0339763,6.12502854 C19.0142669,6.09816675 18.9346144,5.98284101 18.9147545,5.95540513 C18.7178238,5.68335032 18.509006,5.52881908 18.1744462,5.53894012 C17.7856388,5.55070225 17.6859001,5.7124269 17.3136673,6.49410827 C17.1489409,6.84003055 16.9882959,7.20841753 16.6586604,7.98382277 C16.6540526,7.99466189 16.6540526,7.99466189 16.6494456,8.00549966 C16.2204854,9.01462215 16.0571373,9.38690166 15.8903888,9.71491287 L16.8361016,9.94149642 L16.8361016,4.46896552 C16.8361016,4.19282314 16.612244,3.96896552 16.3361016,3.96896552 L14.3862745,3.96896552 L14.6992021,4.85893515 Z M14.0733469,4.07899589 C13.7050076,4.37456641 13.9140079,4.96896552 14.3862745,4.96896552 L16.3361016,4.96896552 L15.8361016,4.46896552 L15.8361016,9.94149642 C15.8361016,10.4673038 16.5435358,10.6367981 16.7818144,10.16808 C16.963679,9.8103338 17.1290344,9.43347947 17.5697492,8.39670454 C17.5743517,8.38587737 17.5743517,8.38587737 17.5789535,8.3750522 C17.9025912,7.61375585 18.0602213,7.25228255 18.2165263,6.92404516 C18.3099836,6.72778656 18.3868143,6.5805535 18.4444979,6.48702051 C18.4175161,6.53077103 18.4163322,6.53208011 18.2046842,6.53848285 C18.1224348,6.54097104 18.08301,6.51179557 18.104707,6.54176938 C18.1151967,6.55626061 18.1973114,6.67515127 18.2277246,6.71660122 C18.2796858,6.78741888 18.330133,6.84879144 18.3868263,6.90728255 C18.4366681,6.95870496 18.4894271,7.01484059 18.5594913,7.09064903 C18.6505866,7.189548 18.7054477,7.24913992 18.7461744,7.29301481 C19.5918908,8.20410536 20.1701879,8.55550125 20.9726006,8.23620376 C22.1828565,7.75461655 22.2466507,7.11665804 21.7523351,5.12543278 C21.717924,4.98681659 21.685874,4.82649781 21.6431151,4.5864777 C21.6363499,4.54850244 21.5782169,4.21612663 21.5596858,4.1136631 C21.5248119,3.92083614 21.493258,3.75941013 21.4591131,3.60334989 C21.4424013,3.52789071 21.4424013,3.52789071 21.424714,3.45205461 C21.3717424,3.22801911 21.322817,3.01100149 21.276803,2.79461106 C21.260809,2.71939568 21.2276819,2.64888285 21.1799977,2.58855556 C20.9637593,2.31498312 20.4751518,1.57787784 20.4401549,1.5327719 C20.3386773,1.40376677 20.3122166,1.3694901 20.2891877,1.33467948 C20.2271035,1.2408327 20.2055164,1.11277717 20.2055164,0.575420777 C20.2055164,-0.252515344 19.8342916,-0.777543063 19.1154123,-0.394000595 C18.9533573,-0.307539644 18.7848094,-0.17219886 18.5411056,0.0525418295 C18.4136104,0.17011641 17.8912087,0.671164912 17.8456685,0.714314042 C17.7468886,0.80790756 17.6315431,0.921204901 17.4761784,1.0764697 C17.4015149,1.15108513 17.1181418,1.43582566 17.0581482,1.49587725 C17.0282013,1.52584151 17.0282013,1.52584151 16.9982734,1.55573338 C16.7762038,1.77742345 16.6070306,1.94242968 16.4599775,2.07928076 C15.9785528,2.52730591 15.2029586,3.17254916 14.0733469,4.07899589 Z" fill="#000000" fill-rule="nonzero"></path>
                            <path d="M4.84018936,5.93291007 L5.99458608,4.4584243 C5.66382767,4.03149057 5.28545776,3.66581179 4.89292916,3.39973644 C4.10726571,2.92999762 3.58853309,2.78360508 3.15446023,2.91400278 C2.58266208,3.08577387 2.31826459,3.31015263 1.77391007,4.08762016 C1.16513442,5.08596136 0.780377842,6.7685354 0.637377446,9.12158077 C1.84261226,6.46611389 3.24571859,5.33332765 4.84018936,5.93291007 Z" id="Combined-Shape" stroke="#060606" fill-opacity="0" fill="#D8D8D8"></path>
                            <path d="M5.23137255,12.4333938 C5.23137255,7.30235935 5.23137255,4.73684211 5.23137255,4.73684211 C5.23137255,4.73684211 8.91057962,4.73684211 16.2689938,4.73684211 L16.2689938,12.4333938" id="Rectangle-3" stroke="#060606" fill-opacity="0" fill="#D8D8D8"></path>
                        </g>
                    </g>
                </g>
                <g id="Group-9" transform="translate(18.500000, 18.500000) rotate(-330.000000) translate(-18.500000, -18.500000) translate(5.000000, 5.000000)" stroke="#AB1111">
                    <circle id="Oval-4" fill-opacity="0" fill="#D8D8D8" cx="13.3692415" cy="13.3692415" r="13.3692415"></circle>
                    <path d="M13.8314517,26.5262728 L13.8314517,0.636630547" id="Line-5" stroke-linecap="square"></path>
                </g>
            </g>
        </g>
    </g>
</svg>