<?xml version="1.0" encoding="UTF-8" standalone="no"?>
<svg
   xmlns:dc="http://purl.org/dc/elements/1.1/"
   xmlns:cc="http://creativecommons.org/ns#"
   xmlns:rdf="http://www.w3.org/1999/02/22-rdf-syntax-ns#"
   xmlns:svg="http://www.w3.org/2000/svg"
   xmlns="http://www.w3.org/2000/svg"
   id="svg39"
   version="1.1"
   viewBox="0 0 44 44"
   height="44px"
   width="44px">
  <metadata
     id="metadata43">
    <rdf:RDF>
      <cc:Work
         rdf:about="">
        <dc:format>image/svg+xml</dc:format>
        <dc:type
           rdf:resource="http://purl.org/dc/dcmitype/StillImage" />
      </cc:Work>
    </rdf:RDF>
  </metadata>
  <!-- Generator: Sketch 51.3 (57544) - http://www.bohemiancoding.com/sketch -->
  <title
     id="title2">Group 4</title>
  <desc
     id="desc4">Created with Sketch.</desc>
  <defs
     id="defs15">
    <linearGradient
       id="linearGradient-1"
       y2="120.641771%"
       x2="50%"
       y1="0%"
       x1="50%">
      <stop
         id="stop6"
         offset="0%"
         stop-color="#FFF29A" />
      <stop
         id="stop8"
         offset="94.0299855%"
         stop-color="#64F3FF" />
      <stop
         id="stop10"
         offset="100%"
         stop-color="#D89CF7" />
      <stop
         id="stop12"
         offset="100%"
         stop-color="#002E2C" />
    </linearGradient>
  </defs>
  <g
     fill-rule="evenodd"
     fill="none"
     stroke-width="1"
     stroke="none"
     id="Page-1">
    <g
       transform="translate(-48.000000, -235.000000)"
       id="iPhone-8">
      <g
         transform="translate(54.000000, 241.000000)"
         id="Group-4">
        <rect
           height="32"
           width="32"
           y="0"
           x="0"
           stroke-width="12"
           stroke="url(#linearGradient-1)"
           id="Rectangle-Copy-3" />
        <g
           transform="translate(1.000000, 4.000000)"
           id="Group-6-Copy-2">
          <g
             id="Group-3">
            <g
               id="Group-2">
              <path
                 fill="#D8D8D8"
                 fill-opacity="0"
                 stroke-width="2"
                 stroke="#080808"
                 id="Combined-Shape"
                 d="M28.7912088,15.5448276 C26.5136772,19.9263161 21.1891085,23 14.9838407,23 C8.77857295,23 3.45400434,19.9263163 1.17647059,15.5448276" />
              <path
                 fill="#D8D8D8"
                 fill-opacity="0"
                 stroke-width="2"
                 stroke="#080808"
                 id="path19"
                 d="M24.5372385,20.067338 C21.9760403,21.8956833 18.6494897,23 15.0136311,23 C11.3184269,23 7.94271036,21.8593392 5.36522301,19.9772325 C5.93293273,18.3054481 6.70986618,16.8049437 7.64754155,15.5448276 L22.2245798,15.5448276 C23.1790705,16.8275414 23.9670025,18.3593427 24.5372385,20.067338 Z" />
              <g
                 transform="translate(0.478345, 0.000000)"
                 id="Group">
                <path
                   fill-rule="nonzero"
                   fill="#000000"
                   d="M20.0167934,6.50654853 C21.5737343,5.32344189 22.6403402,4.48314726 23.3306515,3.87479152 C23.5466478,3.68443877 23.7872999,3.46216047 24.0998252,3.1667126 C24.1410845,3.12768813 24.1410845,3.12768813 24.1822255,3.08870595 C24.2649121,3.010328 24.6466208,2.64711506 24.7453161,2.55371316 C24.9451482,2.36459883 25.0915443,2.2284271 25.2114765,2.12081724 C26.7296637,0.758615716 26.433035,1.01765836 26.5614388,0.952783887 C26.3476763,1.06078486 25.9437397,1.04333073 25.6722886,0.679771203 C25.6038397,0.588096311 25.5818331,0.527762793 25.5760312,0.494935152 C25.5835792,0.537642301 25.5891525,0.619237611 25.5891525,0.735259881 C25.5891525,1.730314 25.6656935,2.16028207 25.994262,2.63061225 C26.0388865,2.69449017 26.0846911,2.75384956 26.1431276,2.8255332 C26.1671742,2.85503102 26.2102347,2.90695375 26.2738599,2.98395319 C26.2668573,2.97540635 26.9318928,3.92547044 27.2817101,4.34457219 L28.0494214,3.70377622 L27.0737177,3.92287044 C27.1387206,4.21235161 27.2076761,4.50199815 27.2821349,4.80021196 C27.2955602,4.85398148 27.3024145,4.88254786 27.3219206,4.96594883 C27.3627424,5.1426326 27.401384,5.32983662 27.4448909,5.55764173 C27.468781,5.68273254 27.5466582,6.10438602 27.5566371,6.15743082 C27.6207882,6.49843833 27.670585,6.73432086 27.728874,6.95667301 C28.1996368,8.75246832 28.1938406,8.80735827 27.6968035,8.99465283 C27.5066904,9.06629164 27.1884365,8.88316223 26.5032903,8.18419189 C26.4512132,8.13106401 26.3802493,8.05806819 26.2539024,7.92817806 C26.1509857,7.82272823 26.0714384,7.74257769 25.9930918,7.66603257 C25.9770117,7.65032222 25.9567411,7.62696932 25.9295638,7.59189356 C25.907015,7.56279138 25.8004691,7.41670756 25.7701254,7.37701126 C25.4467607,6.95397824 25.0846602,6.70022212 24.5150053,6.71654143 C23.9796459,6.73187825 23.778521,6.94247307 23.4754247,7.40787882 C23.3579079,7.58832642 23.2284382,7.82327743 23.077492,8.12345337 C22.8517917,8.57228768 22.6337863,9.04570393 22.1865493,10.0419601 C22.1803295,10.0558155 22.1803295,10.0558155 22.1741113,10.0696679 C21.6000791,11.3484654 21.3805231,11.8223135 21.1616444,12.23004 L23.0427158,12.7030232 L23.0427158,5.71034483 C23.0427158,5.15806008 22.5950006,4.71034483 22.0427158,4.71034483 L19.4117647,4.71034483 L20.0167934,6.50654853 Z M18.8067361,4.91414113 C18.0441126,5.49365245 18.4539401,6.71034483 19.4117647,6.71034483 L22.0427158,6.71034483 L21.0427158,5.71034483 L21.0427158,12.7030232 C21.0427158,13.7426018 22.4320841,14.0919494 22.9237873,13.1760064 C23.1753011,12.7074873 23.3992729,12.2241089 23.9987153,10.8887041 C24.0049237,10.8748735 24.0049237,10.8748735 24.0111306,10.8610468 C24.4453718,9.89373984 24.6568229,9.43455683 24.8642984,9.0219649 C24.9847204,8.78249013 25.0824796,8.60508481 25.1513527,8.49932986 C25.0507424,8.65381747 25.0034181,8.70337005 24.5722772,8.71572125 C24.3430711,8.72228748 24.2095369,8.62870818 24.1811721,8.59160063 C24.1917797,8.60547784 24.3035105,8.75867053 24.3485932,8.81685557 C24.4279369,8.91925869 24.5062319,9.00945934 24.5954209,9.09659758 C24.6603668,9.1600501 24.7298111,9.23002102 24.8226019,9.3250957 C24.9448009,9.45072964 25.0194676,9.52753437 25.0750232,9.5842109 C26.3001457,10.8340526 27.1656564,11.332084 28.4020392,10.8661877 C30.2681949,10.162979 30.3740898,9.16015369 29.6635035,6.44951528 C29.6199412,6.28334035 29.5782877,6.08603217 29.5221595,5.78767201 C29.5132383,5.74024943 29.4346608,5.31480426 29.4093849,5.18245737 C29.3614654,4.93154758 29.3179324,4.72064641 29.2705854,4.51572075 C29.2472983,4.41614597 29.2388993,4.38114182 29.2225648,4.3157205 C29.1518107,4.03234414 29.0865062,3.75803386 29.0251251,3.484682 C28.9902972,3.32958121 28.9189954,3.18501793 28.8171326,3.06298025 C28.5379809,2.72854018 27.8799411,1.78847001 27.8209063,1.71641715 C27.7466684,1.62653773 27.7107,1.58316658 27.693305,1.56182834 C27.6634366,1.52518891 27.6452994,1.5016845 27.6338103,1.48523836 C27.6066102,1.44630267 27.5891525,1.34823461 27.5891525,0.735259881 C27.5891525,-0.542358416 26.9034211,-1.46077135 25.6595389,-0.832314608 C25.4099932,-0.70623459 25.1661653,-0.52082703 24.8175813,-0.216412333 C24.6426089,-0.0636107978 23.9350448,0.579046708 23.8758059,0.632199083 C23.7397864,0.754243303 23.582247,0.900780172 23.3705944,1.101081 C23.2694261,1.19682323 22.8869287,1.56078673 22.8063361,1.63717979 C22.7660792,1.67532418 22.7660792,1.67532418 22.7258775,1.7133483 C22.428877,1.99411973 22.2031506,2.20261196 22.0083157,2.37431552 C21.3669406,2.93954494 20.3243883,3.76088965 18.8067361,4.91414113 Z"
                   id="path21" />
                <path
                   fill="#D8D8D8"
                   fill-opacity="0"
                   stroke-width="2"
                   stroke="#060606"
                   id="path23"
                   d="M6.4300602,7.17000867 L7.64464283,5.70090915 C7.27323027,5.28545488 6.86631978,4.93000373 6.45566931,4.66595654 C5.45929468,4.10182391 4.82856162,3.93326192 4.33591009,4.07340957 C3.63904909,4.27164996 3.3387321,4.51299754 2.65833273,5.4318441 C2.026849,6.41251331 1.57666449,7.96741335 1.32750972,10.0833426 C2.8116241,7.63459231 4.51724839,6.5900896 6.4300602,7.17000867 Z" />
                <path
                   fill="#D8D8D8"
                   fill-opacity="0"
                   stroke-width="2"
                   stroke="#060606"
                   id="Rectangle-3"
                   d="M7.05882353,15.8871143 C7.05882353,9.3307925 7.05882353,6.05263158 7.05882353,6.05263158 C7.05882353,6.05263158 12.0232708,6.05263158 21.9521655,6.05263158 L21.9521655,15.8871143" />
              </g>
            </g>
          </g>
          <g
             transform="translate(9.411765, 7.868421)"
             id="Group-5">
            <rect
               height="3.84210526"
               width="3.11764706"
               y="1.71052632"
               x="0.5"
               fill="#D8D8D8"
               stroke="#050404"
               id="Rectangle-4" />
            <path
               stroke-linecap="square"
               stroke="#040404"
               id="Line"
               d="M0.294117647,0.25 L10.8823529,0.25" />
            <path
               stroke-linecap="square"
               stroke="#040303"
               id="Line-2"
               d="M5.58823529,2.61052632 L10.2941176,2.61052632" />
            <path
               stroke-linecap="square"
               stroke="#040404"
               id="Line-3"
               d="M5.58823529,3.88157895 L10.2941176,3.88157895" />
            <path
               stroke-linecap="square"
               stroke="#060505"
               id="Line-4"
               d="M5.58823529,5.09210526 L9.11764706,5.09210526" />
          </g>
        </g>
      </g>
    </g>
  </g>
</svg>
