<?xml version="1.0" encoding="UTF-8"?>
<svg width="41px" height="41px" viewBox="0 0 41 41" version="1.1" xmlns="http://www.w3.org/2000/svg" xmlns:xlink="http://www.w3.org/1999/xlink">
    <!-- Generator: Sketch 51.3 (57544) - http://www.bohemiancoding.com/sketch -->
    <title>Group 12</title>
    <desc>Created with Sketch.</desc>
    <defs>
        <linearGradient x1="50%" y1="0%" x2="50%" y2="120.641771%" id="linearGradient-1">
            <stop stop-color="#FFF29A" offset="0%"></stop>
            <stop stop-color="#64F3FF" offset="94.0299855%"></stop>
            <stop stop-color="#D89CF7" offset="100%"></stop>
            <stop stop-color="#002E2C" offset="100%"></stop>
        </linearGradient>
    </defs>
    <g id="Page-1" stroke="none" stroke-width="1" fill="none" fill-rule="evenodd">
        <g id="iPhone-8" transform="translate(-273.000000, -186.000000)">
            <g id="Group-12" transform="translate(277.000000, 192.000000)">
                <rect id="Rectangle-Copy-5" stroke="url(#linearGradient-1)" stroke-width="12" fill="#FFFFFF" x="2" y="0" width="29" height="29"></rect>
                <g id="Group-6-Copy-5" transform="translate(0.000000, 2.000000)">
                    <g id="Group-3">
                        <g id="Group-2">
                            <path d="M30.2026862,16.8965517 C27.7733192,21.6590393 22.0937792,25 15.4748269,25 C8.85587464,25 3.17633479,21.6590394 0.746965453,16.8965517" id="Combined-Shape" stroke="#080808" fill-opacity="0" fill="#D8D8D8"></path>
                            <path d="M25.6651179,21.8123239 C22.9331732,23.7996558 19.3848526,25 15.5066033,25 C11.5650522,25 7.96428787,23.7601513 5.21496804,21.7143832 C5.82052507,19.8972262 6.64925409,18.2662431 7.64944115,16.8965517 L23.1982819,16.8965517 C24.2164054,18.2908059 25.0568661,19.9558073 25.6651179,21.8123239 Z" id="Combined-Shape" stroke="#080808" fill-opacity="0" fill="#D8D8D8"></path>
                            <g id="Group" transform="translate(0.002298, 0.000000)">
                                <path id="Combined-Shape" d="M21.0120067,6.60222918 C22.6615728,5.32489387 23.7924571,4.41701226 24.514862,3.76826307 C24.7392275,3.56677367 24.9916662,3.32917345 25.3205992,3.01229945 C25.3643073,2.97017243 25.3643073,2.97017243 25.4079388,2.92804412 C25.4955403,2.84342792 25.9029213,2.44841297 26.008902,2.3462086 C26.2254277,2.13739822 26.3847622,1.98637256 26.517276,1.86521213 C26.5906625,1.79811324 27.3330532,1.11099772 27.5061059,0.956997922 C27.7831399,0.710465135 27.9661332,0.568669557 28.08006,0.51001451 C28.0678365,0.516307763 27.9275041,0.510128648 27.8351587,0.384096189 C27.8363119,0.385670065 27.8617627,0.532411458 27.8617627,0.799195523 C27.8617627,1.76737711 27.9261203,2.13578192 28.1892427,2.51959364 C28.2273026,2.57511095 28.2682067,2.62912796 28.3223264,2.69677912 C28.3460664,2.72645472 28.4389784,2.84061997 28.4608752,2.86785378 C28.4723876,2.88217204 29.1797482,3.91192341 29.5325788,4.34267597 L29.9193828,4.02584372 L29.4310973,4.1334415 C29.4993766,4.44329719 29.5718635,4.75356919 29.6502051,5.07330222 C29.6653744,5.13521226 29.6802928,5.19856982 29.6950465,5.26364091 C29.7404948,5.46409064 29.783141,5.6746253 29.830837,5.92911557 C29.8567246,6.0672438 29.9399981,6.5266915 29.9503334,6.58267527 C30.0164187,6.94064667 30.0671572,7.18556158 30.1250345,7.41054281 C30.6963315,9.63129518 30.6608578,9.97362106 29.7401476,10.3271645 C29.245112,10.5172532 28.7515956,10.2278726 27.8687809,9.31011398 C27.8122374,9.25133242 27.7354839,9.17087936 27.6018999,9.03093453 C27.4950161,8.91933681 27.4130531,8.83518136 27.3333114,8.75579134 C27.2952471,8.71789489 27.2569876,8.67297921 27.2130305,8.61516771 C27.1824973,8.57501114 27.067357,8.41414071 27.0406675,8.37856087 C26.7954975,8.05172283 26.5495605,7.87609444 26.1652939,7.8873122 C25.6219969,7.90317247 25.5605253,8.02774205 24.1811959,11.1587544 C24.1745651,11.1738061 24.1745651,11.1738061 24.1679352,11.1888566 C23.548268,12.595576 23.3127883,13.1134581 23.0698606,13.5745907 L24.0122302,13.8076339 L24.0122302,6.20689655 C24.0122302,5.93075418 23.7883726,5.70689655 23.5122302,5.70689655 L20.7058824,5.70689655 L21.0120067,6.60222918 Z M20.399758,5.81156392 C20.0229137,6.10337192 20.2292656,6.70689655 20.7058824,6.70689655 L23.5122302,6.70689655 L23.0122302,6.20689655 L23.0122302,13.8076339 C23.0122302,14.3295198 23.7113559,14.50241 23.9545998,14.0406771 C24.2134242,13.5493689 24.4510408,13.0267874 25.0830798,11.5919825 C25.0897049,11.5769428 25.0897049,11.5769428 25.0963294,11.5619053 C25.5632899,10.5019271 25.790741,9.99860347 26.0173331,9.5394243 C26.1546174,9.2612238 26.2680732,9.05141712 26.35559,8.91447843 C26.3934945,8.85516881 26.4233519,8.81474234 26.4393646,8.7976568 C26.3977465,8.84206341 26.3358137,8.88276029 26.1944741,8.88688637 C26.1733529,8.88750295 26.17122,8.8859798 26.2407164,8.97862596 C26.2577084,9.0012782 26.3753966,9.16570832 26.4170037,9.22042917 C26.4866689,9.31205123 26.553546,9.39056333 26.6277688,9.46445882 C26.7008725,9.53724015 26.7778339,9.61626021 26.8797048,9.7226239 C27.0112363,9.86042262 27.0898221,9.94279625 27.1480869,10.0033673 C28.3028921,11.2038826 29.0720581,11.6548943 30.098618,11.2607056 C31.6986467,10.6463107 31.7823102,9.83894613 31.0935015,7.16140098 C31.0427374,6.96407016 30.995929,6.73812561 30.9337163,6.40113216 C30.9238914,6.34791224 30.84028,5.88660055 30.8137238,5.74490519 C30.7638984,5.47905317 30.7188916,5.2568648 30.6702933,5.04252168 C30.6542888,4.97193404 30.6380492,4.90296524 30.6214746,4.83532001 C30.5449224,4.52288983 30.4741987,4.22016527 30.4076683,3.91824593 C30.3907555,3.84149472 30.3559881,3.7698113 30.3061868,3.70901147 C29.9881172,3.32069684 29.2841974,2.29595443 29.2402087,2.24124441 C29.2155252,2.21054469 29.123666,2.0976731 29.1032017,2.07209213 C29.0631295,2.02200081 29.0358291,1.98594847 29.0140344,1.95415703 C28.8976703,1.78441888 28.8617627,1.57887138 28.8617627,0.799195523 C28.8617627,-0.227607608 28.4416887,-0.800922471 27.6223162,-0.379069641 C27.4109375,-0.270241611 27.1788524,-0.0904064118 26.8413199,0.20996411 C26.659633,0.371647383 25.9093973,1.06602379 25.8424919,1.12719692 C25.7019906,1.25566049 25.5371272,1.41192679 25.3147359,1.62639374 C25.2075288,1.72978081 24.7997566,2.12517505 24.7131936,2.2087882 C24.6700006,2.25049312 24.6700006,2.25049312 24.626817,2.29211458 C24.3055892,2.6015659 24.0605575,2.83219452 23.846703,3.02424459 C23.1486425,3.65113144 22.029758,4.54937954 20.399758,5.81156392 Z" fill="#000000" fill-rule="nonzero"></path>
                                <path d="M7.04062093,8.48156654 L8.89668872,6.19385409 C8.38682021,5.53578868 7.79174253,4.97061385 7.16171744,4.55890714 C5.98048513,3.87738914 5.17614582,3.65834242 4.4723218,3.86237217 C3.59341014,4.11715764 3.17668553,4.45842571 2.36141737,5.5828008 C1.36295592,7.16286644 0.780751297,9.91955463 0.640388961,13.8348034 C2.47664836,9.369049 4.61493106,7.49268364 7.04062093,8.48156654 Z" id="Combined-Shape" stroke="#060606" fill-opacity="0" fill="#D8D8D8"></path>
                                <path d="M7.52941176,17.2686025 C7.52941176,10.1421658 7.52941176,6.57894737 7.52941176,6.57894737 C7.52941176,6.57894737 12.8248222,6.57894737 23.4156432,6.57894737 L23.4156432,17.2686025" id="Rectangle-3" stroke="#060606" fill-opacity="0" fill="#D8D8D8"></path>
                            </g>
                        </g>
                    </g>
                    <g id="Group-5" transform="translate(9.600000, 8.695652)">
                        <rect id="Rectangle-4" stroke="#050404" fill="#D8D8D8" x="0.5" y="1.80434783" width="3.32280702" height="4.2173913"></rect>
                        <path d="M0.30877193,0.25 L11.4245614,0.25" id="Line" stroke="#040404" stroke-linecap="square"></path>
                        <path d="M5.86666667,2.79347826 L10.8070175,2.79347826" id="Line-2" stroke="#040303" stroke-linecap="square"></path>
                        <path d="M5.86666667,4.16304348 L10.8070175,4.16304348" id="Line-3" stroke="#040404" stroke-linecap="square"></path>
                        <path d="M5.86666667,5.4673913 L9.57192982,5.4673913" id="Line-4" stroke="#060505" stroke-linecap="square"></path>
                    </g>
                </g>
            </g>
        </g>
    </g>
</svg>