<?xml version="1.0" encoding="UTF-8"?>
<svg width="22px" height="22px" viewBox="0 0 22 22" version="1.1" xmlns="http://www.w3.org/2000/svg" xmlns:xlink="http://www.w3.org/1999/xlink">
    <!-- Generator: Sketch 51.3 (57544) - http://www.bohemiancoding.com/sketch -->
    <title>Group 8</title>
    <desc>Created with Sketch.</desc>
    <defs>
        <path d="M14.1549742,9.98618471 C13.4741675,10.6940009 12.8388044,11.3652727 12.2488849,12 C10.9878487,13.3568192 9.97812351,14.6901526 9.21970923,16 C8.23226518,14.6175538 7.14176193,13.2842205 5.9481995,12 C5.1667493,11.2087049 4.24009445,10.3875906 3.5689197,9.71428571 C2.45124475,8.5930636 1.2628117,7.58815504 0.59481995,6.57142857 C0.139719105,5.87873577 0,5.10995344 0,4.57142857 C0,2.04669829 2.1304797,0 4.7585596,0 C6.60913963,0 8.21299125,1.01482799 9,2.49678934 C9.78700875,1.01482799 11.3908604,0 13.2414404,0 C15.8695203,0 18,2.04669829 18,4.57142857 C18,5.10995344 17.8602809,5.87873577 17.40518,6.57142857 C16.7371883,7.58815504 15.5487553,8.5930636 14.4310803,9.71428571 C14.3431312,9.80251392 14.2507953,9.89328014 14.1549742,9.98618471 Z" id="path-1"></path>
    </defs>
    <g id="Page-1" stroke="none" stroke-width="1" fill="none" fill-rule="evenodd">
        <g id="iPhone-8" transform="translate(-14.000000, -177.000000)">
            <g id="Group-8" transform="translate(16.000000, 179.000000)">
                <g id="Combined-Shape-Copy-2">
                    <use fill-opacity="0.715777853" fill="#FFF29A" fill-rule="evenodd" xlink:href="#path-1"></use>
                    <path stroke="#78F4F2" stroke-width="2" d="M14.863716,10.6918655 C14.1912805,11.3911032 13.5638202,12.0540924 12.9813734,12.6807794 C11.7689228,13.9853227 10.8039999,15.259495 10.0851122,16.5010766 L9.30771935,17.8437016 L8.40597088,16.5812314 C7.44364779,15.2339551 6.38031079,13.9338373 5.2366804,12.7026668 C5.11628246,12.580752 4.98730603,12.4530531 4.84712254,12.31674 C4.70372195,12.1772986 4.55046909,12.0306278 4.37301596,11.8626404 C4.22146197,11.7191706 3.68912081,11.2190318 3.58902323,11.124467 C3.28618678,10.8383693 3.06139,10.6216048 2.86069352,10.4202713 C2.73950221,10.2986954 2.61141393,10.1724608 2.46838945,10.0333643 C2.50144999,10.0655169 1.44570442,9.05072605 1.16300415,8.76770274 C0.669425772,8.27356035 0.297683535,7.8609882 -0.0085740228,7.45115907 C-0.0914873916,7.34020568 -0.168898376,7.23017555 -0.240939395,7.12052448 C-0.755868337,6.33676946 -1,5.41653598 -1,4.57142857 C-1,1.48523852 1.58697155,-1 4.7585596,-1 C6.40460728,-1 7.92989057,-0.325093468 9,0.801836969 C10.0701094,-0.325093468 11.5953927,-1 13.2414404,-1 C16.4130285,-1 19,1.48523852 19,4.57142857 C19,5.41653598 18.7558683,6.33676946 18.2409394,7.12052448 C18.1688984,7.23017555 18.0914874,7.34020568 18.008574,7.45115907 C17.7023165,7.8609882 17.3305742,8.27356035 16.8369959,8.76770274 C16.5542956,9.05072605 15.49855,10.0655169 15.5316105,10.0333643 C15.3885861,10.1724608 15.2604978,10.2986954 15.1393065,10.4202713 C15.0539554,10.5058933 14.9626616,10.5958213 14.863716,10.6918655 Z"></path>
                    <use stroke="#C0F2C3" stroke-width="2" xlink:href="#path-1"></use>
                    <path stroke="#E5F2AB" stroke-width="2" d="M9.15479739,14.2356023 C9.8182982,13.2710056 10.6056652,12.2991272 11.5163964,11.3192206 C12.1103303,10.6801739 12.7496019,10.0047728 13.4342501,9.29296268 L13.4588782,9.26823597 C13.5549548,9.1750837 13.6423991,9.08901047 13.7228541,9.00830011 C13.8519371,8.87880742 13.9872317,8.74547076 14.1372224,8.59959942 C14.1175079,8.61877248 15.1562506,7.62032501 15.421975,7.35429697 C15.8539133,6.92186504 16.1671481,6.57422646 16.4064856,6.25394869 C16.4658587,6.17449655 16.520127,6.0973609 16.5694207,6.02233266 C16.8569563,5.58468493 17,5.04549398 17,4.57142857 C17,2.60815805 15.3260121,1 13.2414404,1 C11.803377,1 10.5166237,1.77302984 9.88318564,2.96581293 L9,4.62887827 L8.11681436,2.96581293 C7.48337629,1.77302984 6.19662301,1 4.7585596,1 C2.67398786,1 1,2.60815805 1,4.57142857 C1,5.04549398 1.14304368,5.58468493 1.4305793,6.02233266 C1.47987303,6.0973609 1.53414131,6.17449655 1.5935144,6.25394869 C1.83285192,6.57422646 2.14608669,6.92186504 2.57802504,7.35429697 C2.84374943,7.62032501 3.8824921,8.61877248 3.86277759,8.59959942 C4.01276826,8.74547076 4.14806286,8.87880742 4.27714589,9.00830011 C4.46093368,9.19267119 4.67295483,9.39711664 4.96248703,9.67064539 C5.05961251,9.7624024 5.59295674,10.2634836 5.74796135,10.41022 C5.9314355,10.5839072 6.09090998,10.7365323 6.24140359,10.882871 C6.39080417,11.0281467 6.52926101,11.1652321 6.68068804,11.3192206 C7.55962043,12.2649131 8.38435439,13.2370525 9.15479739,14.2356023 Z" stroke-linejoin="square"></path>
                    <path stroke="#0E5455" stroke-width="1" d="M9.18211092,15.0996294 C9.90367629,13.9666345 10.8039999,12.8201801 11.8826406,11.6596103 C12.4745674,11.0227233 13.1118847,10.3493869 13.7946121,9.6395737 L13.8069262,9.62721034 C13.9049406,9.5321793 13.9943821,9.4441401 14.0769672,9.36129291 C14.2040773,9.23377941 14.3375703,9.10221826 14.4858194,8.95804064 C14.4627684,8.98045858 15.5057618,7.97792527 15.7757302,7.70764841 C16.2230785,7.25978887 16.5509402,6.89591689 16.8070077,6.55325129 C16.8722659,6.46592383 16.9323198,6.38056456 16.9873004,6.29688062 C17.3316843,5.77270606 17.5,5.13825448 17.5,4.57142857 C17.5,2.32742817 15.5977662,0.5 13.2414404,0.5 C11.6184659,0.5 10.1618177,1.37509591 9.44159282,2.73130114 L9,3.56283381 L8.55840718,2.73130114 C7.83818234,1.37509591 6.38153412,0.5 4.7585596,0.5 C2.40223378,0.5 0.5,2.32742817 0.5,4.57142857 C0.5,5.13825448 0.668315675,5.77270606 1.01269962,6.29688062 C1.06768018,6.38056456 1.12773414,6.46592383 1.19299229,6.55325129 C1.44905982,6.89591689 1.77692146,7.25978887 2.22426981,7.70764841 C2.49423818,7.97792527 3.53723157,8.98045858 3.51418056,8.95804064 C3.66242968,9.10221826 3.7959227,9.23377941 3.9230328,9.36129291 C4.11104776,9.54990458 4.32626282,9.75742981 4.61912108,10.0341008 C4.71698958,10.1265597 5.25008305,10.6274054 5.404225,10.7733251 C5.5861939,10.9455874 5.74411297,11.0967239 5.89283333,11.2413382 C6.03992963,11.3843733 6.17601637,11.5191121 6.31444377,11.6596103 C7.34618735,12.7697208 8.30210224,13.9164041 9.18211092,15.0996294 Z" stroke-linejoin="square"></path>
                </g>
                <path d="M8,3.64744267 C9.5,4.55733395 10,6.80640594 10,5.70102778 C10,5.02108745 9.7575582,4.08956423 9.31606854,3.02912754 C9,2.26994629 8,1.57184692 8,1.57184692 C8.20704265,1.57184692 7,1 6.5,1 C5.72694496,1 5,1.48578101 5,2.26994629 C5,3.37532444 6.5,2.7375514 8,3.64744267 Z" id="Oval-3" stroke="#FFFFFF" fill="#FFFFFF"></path>
            </g>
        </g>
    </g>
</svg>