<?xml version="1.0" encoding="UTF-8"?>
<svg width="53px" height="20px" viewBox="0 0 53 20" version="1.1" xmlns="http://www.w3.org/2000/svg" xmlns:xlink="http://www.w3.org/1999/xlink">
    <!-- Generator: Sketch 51.3 (57544) - http://www.bohemiancoding.com/sketch -->
    <title>Group 14</title>
    <desc>Created with Sketch.</desc>
    <defs></defs>
    <g id="Page-1" stroke="none" stroke-width="1" fill="none" fill-rule="evenodd">
        <g id="iPhone-8" transform="translate(-199.000000, -113.000000)">
            <g id="Group-14" transform="translate(198.000000, 113.000000)">
                <path d="M17.8612159,13.9820508 C16.4591372,16.3328957 13.1812619,17.9820508 9.36121652,17.9820508 C5.54117122,17.9820508 2.26329599,16.3328958 0.861215932,13.9820508" id="Combined-Shape" stroke="#080808" fill-opacity="0" fill="#D8D8D8" transform="translate(9.361216, 15.982051) rotate(-345.000000) translate(-9.361216, -15.982051) "></path>
                <g id="Group-11" transform="translate(2.000000, 0.000000)">
                    <path d="M7.14428598,15.124112 C7.48878395,14.2271324 7.9602432,13.4220514 8.52924397,12.7459484 L17.3748915,12.7459484 C17.9540962,13.434176 18.4322296,14.256049 18.7782606,15.1724572" id="Combined-Shape" stroke="#080808" fill-opacity="0" fill="#D8D8D8" transform="translate(12.961273, 13.959203) rotate(-30.000000) translate(-12.961273, -13.959203) "></path>
                    <g id="Group" transform="translate(10.294229, 8.830127) rotate(-30.000000) translate(-10.294229, -8.830127) translate(1.294229, 3.830127)">
                        <path id="Combined-Shape" d="M12.1824881,3.89237466 C13.133136,3.17008393 13.784552,2.65695496 14.2042824,2.28710655 C14.3352874,2.17167061 14.4817308,2.03642663 14.6721271,1.85645885 C14.6973186,1.83263514 14.6973186,1.83263514 14.7224474,1.80882821 C14.7729344,1.76097858 15.0065843,1.53868066 15.0671242,1.48139551 C15.1900833,1.36504717 15.2803015,1.28114124 15.3546008,1.21448498 C16.3165428,0.351495409 16.1118223,0.530251226 16.2050696,0.483145596 C16.1172502,0.527509236 15.9283891,0.519349655 15.8012044,0.3490321 C15.7645763,0.299982047 15.7725614,0.345156031 15.7725614,0.44991748 C15.7725614,1.03743605 15.8160998,1.28197931 16.0003214,1.54564777 C16.0414374,1.6044952 16.0874703,1.66095579 16.1662581,1.75502648 C16.1656687,1.75430711 16.5722788,2.33510749 16.7824118,2.58682473 L17.1662459,2.26640091 L16.6783972,2.37596229 C16.7179765,2.55219842 16.759973,2.72858011 16.8053345,2.91023213 C16.8179948,2.96162655 16.8179948,2.96162655 16.830144,3.01356556 C16.8554919,3.12326076 16.8794142,3.23913928 16.9062872,3.37982913 C16.9209855,3.45678005 16.9686855,3.71500873 16.9747334,3.74715327 C17.0135452,3.95343611 17.0435653,4.09561907 17.0784144,4.22853799 C17.3799425,5.37860492 17.3707966,5.46520526 16.9899581,5.60869399 C16.8149875,5.67461776 16.5895622,5.5449215 16.1400068,5.08635815 C16.0643037,5.00876917 16.0643037,5.00876917 15.9872116,4.92952553 C15.9247934,4.86557981 15.876676,4.81710419 15.8294781,4.77099786 C15.8155444,4.7573864 15.7998909,4.73935505 15.7803384,4.71412355 C15.7652773,4.69468793 15.699781,4.60489904 15.6823153,4.5820531 C15.5041123,4.34895582 15.3102635,4.21312723 15.0063924,4.22183125 C14.6390908,4.23235216 14.5561659,4.35966629 14.2234986,5.02112773 C14.0863897,5.29374921 13.9533371,5.5826441 13.6803552,6.19064995 C13.6765494,6.1991267 13.6765494,6.1991267 13.6727444,6.20760198 C13.3200149,6.99328581 13.1853996,7.28377427 13.0496199,7.53666977 L13.9901421,7.7731865 L13.9901421,3.49425287 C13.9901421,3.2181105 13.7662845,2.99425287 13.4901421,2.99425287 L11.88,2.99425287 L12.1824881,3.89237466 Z M11.5775119,3.09613108 C11.1961678,3.38587169 11.401071,3.99425287 11.88,3.99425287 L13.4901421,3.99425287 L12.9901421,3.49425287 L12.9901421,7.7731865 C12.9901421,8.29296051 13.6847938,8.46764725 13.9306643,8.00970322 C14.0827648,7.72640984 14.2195885,7.43115578 14.5850255,6.61716673 C14.5888255,6.60870235 14.5888255,6.60870235 14.5926249,6.60023995 C14.8591076,6.00670958 14.9888824,5.72493181 15.1168771,5.47043256 C15.1922834,5.32049795 15.2538864,5.20872121 15.2987588,5.13982883 C15.2597956,5.19964879 15.244737,5.21541431 15.0350245,5.22142127 C14.9395081,5.22415722 14.8855418,5.18634344 14.8878787,5.18940023 C14.8954752,5.19933679 14.9635643,5.29268006 14.9898937,5.32665692 C15.035532,5.38555097 15.0802006,5.43700489 15.1306916,5.48632816 C15.1711887,5.52588866 15.2142543,5.56927481 15.2716091,5.62803329 C15.3466271,5.70514898 15.3466271,5.70514898 15.4259211,5.78641651 C16.1454501,6.52036291 16.6444888,6.80748006 17.3425337,6.54447733 C18.4079692,6.14305262 18.4671782,5.58241981 18.0457206,3.97492666 C18.0182367,3.87009954 17.9922893,3.74720607 17.9574901,3.56224943 C17.9519711,3.53291635 17.9039209,3.27279159 17.8885295,3.19221218 C17.8594496,3.0399686 17.833081,2.91224008 17.8044697,2.78842227 C17.7904295,2.72839543 17.7904295,2.72839543 17.7755417,2.6679552 C17.7320329,2.49372274 17.6918624,2.32501008 17.6540945,2.15683953 C17.6366769,2.07928336 17.6010196,2.00699743 17.5500799,1.94597708 C17.3752839,1.73658983 16.972172,1.16078631 16.9397388,1.12120658 C16.8553292,1.01950989 16.8363814,0.996270015 16.8200588,0.972908163 C16.7865501,0.924948547 16.7725614,0.846377915 16.7725614,0.44991748 C16.7725614,-0.262710936 16.4140642,-0.742787203 15.7541688,-0.409428485 C15.6123189,-0.337770309 15.4686127,-0.228510635 15.262056,-0.0481515274 C15.1559458,0.0445007178 14.7238007,0.436950392 14.6868161,0.470130482 C14.6044728,0.544003288 14.5086826,0.633091353 14.379813,0.755032477 C14.3180365,0.813487696 14.0839922,1.03616087 14.0345523,1.08301813 C14.0098655,1.1064062 14.0098655,1.1064062 13.9852029,1.12972978 C13.8025694,1.30235997 13.6635892,1.43071148 13.5431655,1.53682368 C13.1479039,1.88511112 12.508515,2.38876629 11.5775119,3.09613108 Z" fill="#000000" fill-rule="nonzero"></path>
                        <path d="M3.97285975,4.517601 L4.82547087,3.48646555 C4.5747132,3.19356378 4.29390247,2.94265916 4.00607703,2.75779941 C3.37262473,2.39919712 2.96022883,2.28900033 2.62291422,2.38494519 C2.16943511,2.51393157 1.96664884,2.67687699 1.53271682,3.26326885 C1.08426252,3.95960533 0.784270447,5.10476202 0.647086883,6.6891437 C1.60712605,4.87324607 2.71903292,4.0984934 3.97285975,4.517601 Z" id="Combined-Shape" stroke="#060606" fill-opacity="0" fill="#D8D8D8"></path>
                        <path d="M4.32,9.72158365 C4.32,5.70966369 4.32,3.7037037 4.32,3.7037037 C4.32,3.7037037 7.35824176,3.7037037 13.4347253,3.7037037 L13.4347253,9.72158365" id="Rectangle-3" stroke="#060606" fill-opacity="0" fill="#D8D8D8"></path>
                    </g>
                </g>
                <text id="original" font-family="AndaleMono, Andale Mono" font-size="9" font-weight="normal" letter-spacing="-1.45000005" fill="#000000">
                    <tspan x="22" y="10">origina</tspan>
                    <tspan x="49.656152" y="10">l</tspan>
                    <tspan x="55.0570309" y="10" letter-spacing="8"></tspan>
                </text>
                <g id="Group-13" transform="translate(22.000000, 10.000000)" fill="#000000" font-family="AndaleMono, Andale Mono" font-size="9" font-weight="normal" letter-spacing="-1.45000005">
                    <text id="-----">
                        <tspan x="0" y="8">- - - </tspan>
                    </text>
                </g>
                <polygon id="Triangle-4" stroke="#040404" fill-opacity="0" fill="#D8D8D8" points="53 15.5 46 19 46 12"></polygon>
            </g>
        </g>
    </g>
</svg>