<?xml version="1.0" encoding="UTF-8"?>
<svg width="50px" height="51px" viewBox="0 0 50 51" version="1.1" xmlns="http://www.w3.org/2000/svg" xmlns:xlink="http://www.w3.org/1999/xlink">
    <!-- Generator: Sketch 51.3 (57544) - http://www.bohemiancoding.com/sketch -->
    <title>Group 16</title>
    <desc>Created with Sketch.</desc>
    <defs></defs>
    <g id="Page-1" stroke="none" stroke-width="1" fill="none" fill-rule="evenodd">
        <g id="iPhone-8" transform="translate(-161.000000, -459.000000)">
            <g id="Group-16" transform="translate(161.000000, 459.000000)">
                <g id="Group-17">
                    <rect id="Rectangle-5-Copy-12" stroke="#F7F2FF" fill-opacity="0.0153136322" fill="#D8D8D8" x="0.5" y="0.5" width="49" height="50"></rect>
                    <g id="Group-15" transform="translate(3.000000, 7.000000)">
                        <g id="Group-8-Copy">
                            <path d="M34.5212759,24.4250004 C32.903326,26.0974847 31.3934646,27.6834715 29.9917306,29.1829068 C27.0280625,32.3531433 24.6609798,35.4606826 22.8889923,38.5032663 L22.1127211,39.8361595 L21.2127302,38.5834754 C18.8790877,35.3353132 16.3012889,32.2018221 13.5001201,29.2047381 C13.2055316,28.9081726 12.8908509,28.5984203 12.5495801,28.2685009 C12.2020955,27.9325746 11.8316787,27.5801281 11.403589,27.1772298 C11.0391513,26.8342377 9.766752,25.6457585 9.52969042,25.4231022 C8.8154697,24.7522819 8.28731078,24.2459555 7.81958772,23.779476 C7.52460607,23.4852786 7.21362297,23.1805778 6.86712524,22.8455555 C6.93685329,22.9129743 4.42657879,20.5141075 3.76300444,19.8536372 C2.62659142,18.7225402 1.77906056,17.7873904 1.09375721,16.8756599 C0.911967359,16.6338058 0.743044574,16.395099 0.586673431,16.1584758 C-0.48646397,14.5345879 -1,12.6101119 -1,10.8571429 C-1,4.29808388 4.54721171,-1 11.3676702,-1 C15.4705284,-1 19.2192367,0.933449939 21.5,4.054765 C23.7807633,0.933449939 27.5294716,-1 31.6323298,-1 C38.4527883,-1 44,4.29808388 44,10.8571429 C44,12.6101119 43.486464,14.5345879 42.4133266,16.1584758 C42.2569554,16.395099 42.0880326,16.6338058 41.9062428,16.8756599 C41.2209394,17.7873904 40.3734086,18.7225402 39.2369956,19.8536372 C38.5734212,20.5141075 36.0631467,22.9129743 36.1328748,22.8455555 C35.786377,23.1805778 35.4753939,23.4852786 35.1804123,23.779476 C34.9773508,23.9819975 34.7590374,24.1957047 34.5212759,24.4250004 Z" id="Combined-Shape-Copy-2" stroke-opacity="0.336843297" stroke="#E7F2A8" stroke-width="2"></path>
                            <path d="M19.2,9.35386241 C22.8,11.5376015 24,16.9353743 24,14.2824667 C24,12.6506099 23.4181397,10.4149541 22.3585645,7.8699061 C21.6,6.04787109 19.2,4.3724326 19.2,4.3724326 C19.6969024,4.3724326 16.8,3 15.6,3 C13.7446679,3 12,4.16587442 12,6.04787109 C12,8.70077867 15.6,7.17012335 19.2,9.35386241 Z" id="Oval-3"></path>
                        </g>
                        <text id="SAVED" font-family="AndaleMono, Andale Mono" font-size="13" font-weight="normal" letter-spacing="-0.550000012" fill="#BFF2C3">
                            <tspan x="3" y="22">SAVE</tspan>
                            <tspan x="32.0050781" y="22">D</tspan>
                        </text>
                    </g>
                </g>
            </g>
        </g>
    </g>
</svg>