<?xml version="1.0" encoding="UTF-8"?>
<svg width="50px" height="51px" viewBox="0 0 50 51" version="1.1" xmlns="http://www.w3.org/2000/svg" xmlns:xlink="http://www.w3.org/1999/xlink">
    <!-- Generator: Sketch 51.3 (57544) - http://www.bohemiancoding.com/sketch -->
    <title>Group 16</title>
    <desc>Created with Sketch.</desc>
    <defs></defs>
    <g id="Page-1" stroke="none" stroke-width="1" fill="none" fill-rule="evenodd">
        <g id="iPhone-8" transform="translate(-144.000000, -578.000000)">
            <g id="Group-16" transform="translate(144.000000, 578.000000)">
                <g id="Group-17">
                    <rect id="Rectangle-5-Copy-12" stroke="#F7F2FF" fill-opacity="0.0153136322" fill="#D8D8D8" x="0.5" y="0.5" width="49" height="50"></rect>
                    <g id="Group-15" transform="translate(4.000000, 9.000000)">
                        <g id="Group-8-Copy">
                            <path d="M32.9462224,23.1789947 C31.4039457,24.7630286 29.964707,26.2651318 28.6285455,27.6852503 C25.8052358,30.685961 23.5506048,33.626874 21.8631652,36.505688 L21.0881423,37.8278965 L20.190104,36.5859533 C17.9663213,33.51057 15.5098277,30.5436996 12.8414817,27.7070186 C12.5608456,27.4263125 12.2610367,27.1330933 11.9358676,26.8207578 C11.6047204,26.5026802 11.2516858,26.1689286 10.8436558,25.7873743 C10.4962535,25.4625138 9.28306031,24.3366091 9.05695173,24.1256033 C8.37562179,23.4897825 7.8717128,23.0098042 7.42532431,22.5674601 C7.14425904,22.2889413 6.84791915,22.0004516 6.51771035,21.6832279 C6.58452618,21.7474163 4.19058696,19.4744053 3.55745499,18.8482798 C2.47233417,17.7751673 1.66273722,16.8876066 1.00756868,16.0215621 C0.833610452,15.7916128 0.671928397,15.5646044 0.522220994,15.3395189 C-0.507379829,13.7915113 -1,11.9572666 -1,10.2857143 C-1,4.04073053 4.31185107,-1 10.8389413,-1 C14.7430287,-1 18.3129555,0.818493041 20.5,3.75949735 C22.6870445,0.818493041 26.2569713,-1 30.1610587,-1 C36.6881489,-1 42,4.04073053 42,10.2857143 C42,11.9572666 41.5073798,13.7915113 40.477779,15.3395189 C40.3280716,15.5646044 40.1663895,15.7916128 39.9924313,16.0215621 C39.3372628,16.8876066 38.5276658,17.7751673 37.442545,18.8482798 C36.809413,19.4744053 34.4154738,21.7474163 34.4822897,21.6832279 C34.1520809,22.0004516 33.855741,22.2889413 33.5746757,22.5674601 C33.3810267,22.7593546 33.1728746,22.9618102 32.9462224,23.1789947 Z" id="Combined-Shape-Copy-2" stroke-opacity="0.336843297" stroke="#E7F2A8" stroke-width="2"></path>
                            <path d="M18.2,7.35386241 C21.8,9.53760148 23,14.9353743 23,12.2824667 C23,10.6506099 22.4181397,8.41495414 21.3585645,5.8699061 C20.6,4.04787109 18.2,2.3724326 18.2,2.3724326 C18.6969024,2.3724326 15.8,1 14.6,1 C12.7446679,1 11,2.16587442 11,4.04787109 C11,6.70077867 14.6,5.17012335 18.2,7.35386241 Z" id="Oval-3"></path>
                        </g>
                        <text id="SAVED" font-family="AndaleMono, Andale Mono" font-size="13" font-weight="normal" letter-spacing="-0.550000012" fill="#BFF2C3">
                            <tspan x="2" y="22">SAVE</tspan>
                            <tspan x="31.0050781" y="22">D</tspan>
                        </text>
                    </g>
                </g>
            </g>
        </g>
    </g>
</svg>