<?xml version="1.0" encoding="UTF-8"?>
<svg width="50px" height="51px" viewBox="0 0 50 51" version="1.1" xmlns="http://www.w3.org/2000/svg" xmlns:xlink="http://www.w3.org/1999/xlink">
    <!-- Generator: Sketch 51.3 (57544) - http://www.bohemiancoding.com/sketch -->
    <title>Group 10 Copy 2</title>
    <desc>Created with Sketch.</desc>
    <defs></defs>
    <g id="Page-1" stroke="none" stroke-width="1" fill="none" fill-rule="evenodd">
        <g id="iPhone-8" transform="translate(-152.000000, -528.000000)">
            <g id="Group-10-Copy-2" transform="translate(151.000000, 528.000000)">
                <rect id="Rectangle-5-Copy" stroke="#F7F2FF" fill-opacity="0.0153136322" fill="#D8D8D8" x="1.5" y="0.5" width="49" height="50"></rect>
                <rect id="Rectangle-5-Copy-12" stroke="#F7F2FF" fill-opacity="0.0153136322" fill="#D8D8D8" x="1.5" y="0.5" width="49" height="50"></rect>
                <g id="Group-9" transform="translate(0.000000, 7.000000)">
                    <g id="Group-2" transform="translate(2.802817, 0.000000)">
                        <path d="M42.3942255,24.3310345 C39.0406258,31.1890166 31.2003518,36 22.0632737,36 C12.9261958,36 5.08592188,31.1890167 1.73231905,24.3310345" id="Combined-Shape" stroke-opacity="0.36571558" stroke="#FFF29A" fill-opacity="0" fill="#D8D8D8"></path>
                        <path d="M36.1303768,31.4097464 C32.3590863,34.2715043 27.4608364,36 22.1071393,36 C16.6660575,36 11.6954122,34.2146178 7.90013632,31.2687118 C8.73607252,28.6520057 9.88008465,26.3033901 11.2607846,24.3310345 L32.7250534,24.3310345 C34.1305136,26.3387605 35.2907207,28.7363625 36.1303768,31.4097464 Z" id="Combined-Shape" stroke-opacity="0.36571558" stroke="#FFF29A" fill-opacity="0" fill="#D8D8D8"></path>
                        <g id="Group" transform="translate(0.704350, 0.000000)">
                            <path id="Combined-Shape" d="M29.992823,8.43793103 L32.457264,8.43793103 C32.7334064,8.43793103 32.957264,8.66178866 32.957264,8.93793103 L32.957264,17.5656715 C33.1191438,17.187168 33.3079062,16.741829 33.5334642,16.2076933 C33.5426153,16.186023 33.5426153,16.186023 33.5517673,16.1643518 C35.3043448,12.0144444 35.5020047,11.5966136 36.1245856,11.5776546 C36.5847093,11.5636429 36.8771029,11.7814556 37.1818632,12.2052623 C37.2166675,12.2536621 37.3761475,12.4860959 37.420623,12.5471127 C37.486627,12.637665 37.5453444,12.7095717 37.6052377,12.7717737 C37.7139786,12.8847059 37.8261126,13.0048067 37.972646,13.1644036 C37.9986661,13.1927434 38.2629601,13.4817289 38.3413638,13.5667526 C39.6095761,14.9420458 40.3411353,15.3895135 41.1160467,15.0791173 C42.5223158,14.5158265 42.5824432,13.9105544 41.7688557,10.6115196 C41.690579,10.2941137 41.6214355,9.94595811 41.5310926,9.435475 C41.5169422,9.35551828 41.4019107,8.69346856 41.3660213,8.49371228 C41.299693,8.12453722 41.240283,7.81858926 41.1768254,7.52663447 C41.1561738,7.43162079 41.1352788,7.33905266 41.1140186,7.24854023 C41.0153249,6.82836658 40.9234084,6.41967487 40.8365235,6.01248004 C40.3376412,5.35638013 39.4520797,4.01181836 39.4304767,3.98379081 C39.3996703,3.94382283 39.2716295,3.77970533 39.2395388,3.73786033 C39.1677717,3.64427909 39.1141564,3.57042113 39.0650533,3.49570506 C38.7340364,2.99202488 38.6517611,2.50073269 38.6517611,1.15084155 C38.6517611,0.892557174 38.6368115,0.698980346 38.6167399,0.573709493 C38.4434516,0.681907423 38.1987523,0.884677409 37.8518987,1.2066599 C37.6112989,1.43000754 36.584916,2.4209559 36.4848958,2.51635229 C36.300379,2.69233898 36.0793228,2.91090778 35.7792509,3.2127725 C35.6327051,3.36019385 35.070261,3.92909461 34.9495402,4.05073239 C34.8893973,4.11130871 34.8893973,4.11130871 34.8291658,4.17186605 C34.3766293,4.62662073 34.0296302,4.96731407 33.7219934,5.25550403 C32.8978091,6.02758867 31.6830371,7.05877308 29.992823,8.43793103 Z M36.1606566,12.5772422 C36.1587676,12.5771478 36.1568926,12.5771344 36.1550236,12.5771913 C36.1606304,12.5770206 36.1660892,12.5768001 36.1714045,12.5765324 Z M36.2639605,12.6516467 C36.2522101,12.6698634 36.2399069,12.6894401 36.2271108,12.7103261 C36.1011749,12.9158814 35.9411848,13.2245057 35.7484302,13.631967 C35.4336807,14.2973119 35.1189916,15.0237279 34.4729855,16.5533981 C34.4638394,16.5750555 34.4638394,16.5750555 34.4546927,16.5967151 C33.5849179,18.6563973 33.2573849,19.407807 32.9035782,20.1083895 C32.6662233,20.5783826 31.957264,20.40952 31.957264,19.8829928 L31.957264,9.43793103 L28.5832643,9.43793103 C28.1118042,9.43793103 27.902324,8.84522209 28.269081,8.54897235 C30.5230281,6.7283355 32.0699068,5.4329122 33.0383296,4.52570699 C33.3356299,4.24720011 33.6753597,3.91364393 34.1203324,3.46649014 C34.1800498,3.40644968 34.1800498,3.40644968 34.239763,3.34630616 C34.3594662,3.22569366 34.9222936,2.6564052 35.0700412,2.50777488 C35.3758687,2.20012023 35.6023487,1.97618861 35.7947135,1.79271674 C35.8883579,1.70340142 36.9224589,0.705001404 37.1715564,0.473765424 C37.6259356,0.0519674421 37.9367417,-0.199256687 38.2103709,-0.346212423 C39.1791904,-0.866528019 39.6517611,-0.193739431 39.6517611,1.15084155 C39.6517611,2.31786514 39.707896,2.65306427 39.9007382,2.9464959 C39.9342608,2.99750443 39.9747978,3.05334635 40.0330573,3.12931426 C40.0619881,3.16703874 40.189013,3.3298543 40.2225082,3.3733106 C40.2764344,3.44327394 41.2488744,4.91999598 41.6952175,5.4884232 C41.7425129,5.54865483 41.7753408,5.61894558 41.7911688,5.69387338 C41.883409,6.1305247 41.9814406,6.56824171 42.0875239,7.01987578 C42.1100842,7.11592294 42.1322012,7.21390476 42.1540094,7.31423966 C42.2203777,7.61958657 42.2819675,7.93675977 42.3502618,8.31687761 C42.3867681,8.52006731 42.5021114,9.18391111 42.515791,9.2612077 C42.602556,9.75147398 42.6680704,10.081356 42.7397668,10.3720795 C43.6656817,14.1265931 43.5613473,15.1768752 41.487883,16.0074156 C40.1623205,16.5383789 39.1508203,15.9196817 37.606217,14.2446605 C37.5261346,14.1578164 37.2607969,13.8676897 37.2360352,13.8407205 C37.094395,13.686453 36.987143,13.5715811 36.8848898,13.4653866 C36.7897774,13.3666081 36.7033598,13.2607789 36.6125148,13.1361468 C36.5574048,13.0605402 36.3954786,12.8245412 36.3699832,12.7890867 C36.3258029,12.7276486 36.2915506,12.6833294 36.2639605,12.6516467 Z" fill-opacity="0.36571558" fill="#FFF29A" fill-rule="nonzero"></path>
                            <path d="M9.77307942,12.4725022 L12.5332899,8.9235985 C11.7927522,7.89499387 10.914828,7.01094429 9.97343734,6.36957821 C8.30499932,5.36543305 7.15342842,5.03829386 6.12633008,5.34888272 C4.86893193,5.72911295 4.26072495,6.24868085 3.10396554,7.91367528 C1.60854605,10.3822784 0.785198445,14.7690329 0.663554595,21.0505637 C3.27969865,13.8861244 6.31942051,10.9081422 9.77307942,12.4725022 Z" id="Combined-Shape" stroke-opacity="0.36571558" stroke="#FFF29A" fill-opacity="0" fill="#D8D8D8"></path>
                            <path d="M10.3939143,24.8667877 C10.3939143,14.6047187 10.3939143,9.47368421 10.3939143,9.47368421 C10.3939143,9.47368421 17.7039199,9.47368421 32.3239312,9.47368421 L32.3239312,24.8667877" id="Rectangle-3" stroke-opacity="0.36571558" stroke="#FFF29A" fill-opacity="0" fill="#D8D8D8"></path>
                        </g>
                    </g>
                    <text id="SETTINGS" font-family="AndaleMono, Andale Mono" font-size="13" font-weight="normal" letter-spacing="-1.54999995" fill="#70F4F8">
                        <tspan x="0" y="25">SETTING</tspan>
                        <tspan x="43.7588871" y="25">S</tspan>
                    </text>
                </g>
            </g>
        </g>
    </g>
</svg>